<svg width="1256" height="547" xmlns="http://www.w3.org/2000/svg" version="1.2">
 <defs>
  <clipPath id="clip1">
   <path d="m1334,825l91,0l0,75l-91,0l0,-75zm0,0" id="svg_1"/>
  </clipPath>
  <clipPath id="clip2">
   <path d="m262.8125,1379.19531l4.87109,-1391.24219l1391.24219,4.8711l-4.87109,1391.24219l-1391.24219,-4.8711zm0,0" id="svg_2"/>
  </clipPath>
  <clipPath id="clip3">
   <path d="m262.8125,1379.19531l4.87109,-1391.24219l1391.24219,4.8711l-4.87109,1391.24219l-1391.24219,-4.8711zm0,0" id="svg_3"/>
  </clipPath>
  <clipPath id="clip4">
   <path d="m1253,825l162,0l0,75l-162,0l0,-75zm0,0" id="svg_4"/>
  </clipPath>
  <clipPath id="clip5">
   <path d="m262.8125,1379.19531l4.87109,-1391.24219l1391.24219,4.8711l-4.87109,1391.24219l-1391.24219,-4.8711zm0,0" id="svg_5"/>
  </clipPath>
  <clipPath id="clip6">
   <path d="m262.8125,1379.19531l4.87109,-1391.24219l1391.24219,4.8711l-4.87109,1391.24219l-1391.24219,-4.8711zm0,0" id="svg_6"/>
  </clipPath>
  <clipPath id="clip7">
   <path d="m1334,687l91,0l0,140l-91,0l0,-140zm0,0" id="svg_7"/>
  </clipPath>
  <clipPath id="clip8">
   <path d="m262.8125,1379.19531l4.87109,-1391.24219l1391.24219,4.8711l-4.87109,1391.24219l-1391.24219,-4.8711zm0,0" id="svg_8"/>
  </clipPath>
  <clipPath id="clip9">
   <path d="m262.8125,1379.19531l4.87109,-1391.24219l1391.24219,4.8711l-4.87109,1391.24219l-1391.24219,-4.8711zm0,0" id="svg_9"/>
  </clipPath>
  <clipPath id="clip10">
   <path d="m1254,686l162,0l0,141l-162,0l0,-141zm0,0" id="svg_10"/>
  </clipPath>
  <clipPath id="clip11">
   <path d="m262.8125,1379.19531l4.87109,-1391.24219l1391.24219,4.8711l-4.87109,1391.24219l-1391.24219,-4.8711zm0,0" id="svg_11"/>
  </clipPath>
  <clipPath id="clip12">
   <path d="m262.8125,1379.19531l4.87109,-1391.24219l1391.24219,4.8711l-4.87109,1391.24219l-1391.24219,-4.8711zm0,0" id="svg_12"/>
  </clipPath>
  <clipPath id="clip13">
   <path d="m1174,686l162,0l0,141l-162,0l0,-141zm0,0" id="svg_13"/>
  </clipPath>
  <clipPath id="clip14">
   <path d="m262.8125,1379.19531l4.87109,-1391.24219l1391.24219,4.8711l-4.87109,1391.24219l-1391.24219,-4.8711zm0,0" id="svg_14"/>
  </clipPath>
  <clipPath id="clip15">
   <path d="m262.8125,1379.19531l4.87109,-1391.24219l1391.24219,4.8711l-4.87109,1391.24219l-1391.24219,-4.8711zm0,0" id="svg_15"/>
  </clipPath>
  <clipPath id="clip16">
   <path d="m1174,824l162,0l0,76l-162,0l0,-76zm0,0" id="svg_16"/>
  </clipPath>
  <clipPath id="clip17">
   <path d="m262.8125,1379.19531l4.87109,-1391.24219l1391.24219,4.8711l-4.87109,1391.24219l-1391.24219,-4.8711zm0,0" id="svg_17"/>
  </clipPath>
  <clipPath id="clip18">
   <path d="m262.8125,1379.19531l4.87109,-1391.24219l1391.24219,4.8711l-4.87109,1391.24219l-1391.24219,-4.8711zm0,0" id="svg_18"/>
  </clipPath>
  <clipPath id="clip19">
   <path d="m1335,548l90,0l0,141l-90,0l0,-141zm0,0" id="svg_19"/>
  </clipPath>
  <clipPath id="clip20">
   <path d="m262.8125,1379.19531l4.87109,-1391.24219l1391.24219,4.8711l-4.87109,1391.24219l-1391.24219,-4.8711zm0,0" id="svg_20"/>
  </clipPath>
  <clipPath id="clip21">
   <path d="m262.8125,1379.19531l4.87109,-1391.24219l1391.24219,4.8711l-4.87109,1391.24219l-1391.24219,-4.8711zm0,0" id="svg_21"/>
  </clipPath>
  <clipPath id="clip22">
   <path d="m1254,548l162,0l0,141l-162,0l0,-141zm0,0" id="svg_22"/>
  </clipPath>
  <clipPath id="clip23">
   <path d="m262.8125,1379.19531l4.87109,-1391.24219l1391.24219,4.8711l-4.87109,1391.24219l-1391.24219,-4.8711zm0,0" id="svg_23"/>
  </clipPath>
  <clipPath id="clip24">
   <path d="m262.8125,1379.19531l4.87109,-1391.24219l1391.24219,4.8711l-4.87109,1391.24219l-1391.24219,-4.8711zm0,0" id="svg_24"/>
  </clipPath>
  <clipPath id="clip25">
   <path d="m1335,410l90,0l0,141l-90,0l0,-141zm0,0" id="svg_25"/>
  </clipPath>
  <clipPath id="clip26">
   <path d="m262.8125,1379.19531l4.87109,-1391.24219l1391.24219,4.8711l-4.87109,1391.24219l-1391.24219,-4.8711zm0,0" id="svg_26"/>
  </clipPath>
  <clipPath id="clip27">
   <path d="m262.8125,1379.19531l4.87109,-1391.24219l1391.24219,4.8711l-4.87109,1391.24219l-1391.24219,-4.8711zm0,0" id="svg_27"/>
  </clipPath>
  <clipPath id="clip28">
   <path d="m1255,409l162,0l0,141l-162,0l0,-141zm0,0" id="svg_28"/>
  </clipPath>
  <clipPath id="clip29">
   <path d="m262.8125,1379.19531l4.87109,-1391.24219l1391.24219,4.8711l-4.87109,1391.24219l-1391.24219,-4.8711zm0,0" id="svg_29"/>
  </clipPath>
  <clipPath id="clip30">
   <path d="m262.8125,1379.19531l4.87109,-1391.24219l1391.24219,4.8711l-4.87109,1391.24219l-1391.24219,-4.8711zm0,0" id="svg_30"/>
  </clipPath>
  <clipPath id="clip31">
   <path d="m1175,409l162,0l0,141l-162,0l0,-141zm0,0" id="svg_31"/>
  </clipPath>
  <clipPath id="clip32">
   <path d="m262.8125,1379.19531l4.87109,-1391.24219l1391.24219,4.8711l-4.87109,1391.24219l-1391.24219,-4.8711zm0,0" id="svg_32"/>
  </clipPath>
  <clipPath id="clip33">
   <path d="m262.8125,1379.19531l4.87109,-1391.24219l1391.24219,4.8711l-4.87109,1391.24219l-1391.24219,-4.8711zm0,0" id="svg_33"/>
  </clipPath>
  <clipPath id="clip34">
   <path d="m1175,547l162,0l0,141l-162,0l0,-141zm0,0" id="svg_34"/>
  </clipPath>
  <clipPath id="clip35">
   <path d="m262.8125,1379.19531l4.87109,-1391.24219l1391.24219,4.8711l-4.87109,1391.24219l-1391.24219,-4.8711zm0,0" id="svg_35"/>
  </clipPath>
  <clipPath id="clip36">
   <path d="m262.8125,1379.19531l4.87109,-1391.24219l1391.24219,4.8711l-4.87109,1391.24219l-1391.24219,-4.8711zm0,0" id="svg_36"/>
  </clipPath>
  <clipPath id="clip37">
   <path d="m1335,271l90,0l0,141l-90,0l0,-141zm0,0" id="svg_37"/>
  </clipPath>
  <clipPath id="clip38">
   <path d="m262.8125,1379.19531l4.87109,-1391.24219l1391.24219,4.8711l-4.87109,1391.24219l-1391.24219,-4.8711zm0,0" id="svg_38"/>
  </clipPath>
  <clipPath id="clip39">
   <path d="m262.8125,1379.19531l4.87109,-1391.24219l1391.24219,4.8711l-4.87109,1391.24219l-1391.24219,-4.8711zm0,0" id="svg_39"/>
  </clipPath>
  <clipPath id="clip40">
   <path d="m1255,271l162,0l0,141l-162,0l0,-141zm0,0" id="svg_40"/>
  </clipPath>
  <clipPath id="clip41">
   <path d="m262.8125,1379.19531l4.87109,-1391.24219l1391.24219,4.8711l-4.87109,1391.24219l-1391.24219,-4.8711zm0,0" id="svg_41"/>
  </clipPath>
  <clipPath id="clip42">
   <path d="m262.8125,1379.19531l4.87109,-1391.24219l1391.24219,4.8711l-4.87109,1391.24219l-1391.24219,-4.8711zm0,0" id="svg_42"/>
  </clipPath>
  <clipPath id="clip43">
   <path d="m1335,133l90,0l0,141l-90,0l0,-141zm0,0" id="svg_43"/>
  </clipPath>
  <clipPath id="clip44">
   <path d="m262.8125,1379.19531l4.87109,-1391.24219l1391.24219,4.8711l-4.87109,1391.24219l-1391.24219,-4.8711zm0,0" id="svg_44"/>
  </clipPath>
  <clipPath id="clip45">
   <path d="m262.8125,1379.19531l4.87109,-1391.24219l1391.24219,4.8711l-4.87109,1391.24219l-1391.24219,-4.8711zm0,0" id="svg_45"/>
  </clipPath>
  <clipPath id="clip46">
   <path d="m1256,132l162,0l0,141l-162,0l0,-141zm0,0" id="svg_46"/>
  </clipPath>
  <clipPath id="clip47">
   <path d="m262.8125,1379.19531l4.87109,-1391.24219l1391.24219,4.8711l-4.87109,1391.24219l-1391.24219,-4.8711zm0,0" id="svg_47"/>
  </clipPath>
  <clipPath id="clip48">
   <path d="m262.8125,1379.19531l4.87109,-1391.24219l1391.24219,4.8711l-4.87109,1391.24219l-1391.24219,-4.8711zm0,0" id="svg_48"/>
  </clipPath>
  <clipPath id="clip49">
   <path d="m1176,132l162,0l0,141l-162,0l0,-141zm0,0" id="svg_49"/>
  </clipPath>
  <clipPath id="clip50">
   <path d="m262.8125,1379.19531l4.87109,-1391.24219l1391.24219,4.8711l-4.87109,1391.24219l-1391.24219,-4.8711zm0,0" id="svg_50"/>
  </clipPath>
  <clipPath id="clip51">
   <path d="m262.8125,1379.19531l4.87109,-1391.24219l1391.24219,4.8711l-4.87109,1391.24219l-1391.24219,-4.8711zm0,0" id="svg_51"/>
  </clipPath>
  <clipPath id="clip52">
   <path d="m1176,270l162,0l0,141l-162,0l0,-141zm0,0" id="svg_52"/>
  </clipPath>
  <clipPath id="clip53">
   <path d="m262.8125,1379.19531l4.87109,-1391.24219l1391.24219,4.8711l-4.87109,1391.24219l-1391.24219,-4.8711zm0,0" id="svg_53"/>
  </clipPath>
  <clipPath id="clip54">
   <path d="m262.8125,1379.19531l4.87109,-1391.24219l1391.24219,4.8711l-4.87109,1391.24219l-1391.24219,-4.8711zm0,0" id="svg_54"/>
  </clipPath>
  <clipPath id="clip55">
   <path d="m1336,0l89,0l0,135l-89,0l0,-135zm0,0" id="svg_55"/>
  </clipPath>
  <clipPath id="clip56">
   <path d="m262.8125,1379.19531l4.87109,-1391.24219l1391.24219,4.8711l-4.87109,1391.24219l-1391.24219,-4.8711zm0,0" id="svg_56"/>
  </clipPath>
  <clipPath id="clip57">
   <path d="m262.8125,1379.19531l4.87109,-1391.24219l1391.24219,4.8711l-4.87109,1391.24219l-1391.24219,-4.8711zm0,0" id="svg_57"/>
  </clipPath>
  <clipPath id="clip58">
   <path d="m1256,0l162,0l0,135l-162,0l0,-135zm0,0" id="svg_58"/>
  </clipPath>
  <clipPath id="clip59">
   <path d="m262.8125,1379.19531l4.87109,-1391.24219l1391.24219,4.8711l-4.87109,1391.24219l-1391.24219,-4.8711zm0,0" id="svg_59"/>
  </clipPath>
  <clipPath id="clip60">
   <path d="m262.8125,1379.19531l4.87109,-1391.24219l1391.24219,4.8711l-4.87109,1391.24219l-1391.24219,-4.8711zm0,0" id="svg_60"/>
  </clipPath>
  <clipPath id="clip61">
   <path d="m1177,0l162,0l0,135l-162,0l0,-135zm0,0" id="svg_61"/>
  </clipPath>
  <clipPath id="clip62">
   <path d="m262.8125,1379.19531l4.87109,-1391.24219l1391.24219,4.8711l-4.87109,1391.24219l-1391.24219,-4.8711zm0,0" id="svg_62"/>
  </clipPath>
  <clipPath id="clip63">
   <path d="m262.8125,1379.19531l4.87109,-1391.24219l1391.24219,4.8711l-4.87109,1391.24219l-1391.24219,-4.8711zm0,0" id="svg_63"/>
  </clipPath>
  <clipPath id="clip64">
   <path d="m1093,824l162,0l0,76l-162,0l0,-76zm0,0" id="svg_64"/>
  </clipPath>
  <clipPath id="clip65">
   <path d="m262.8125,1379.19531l4.87109,-1391.24219l1391.24219,4.8711l-4.87109,1391.24219l-1391.24219,-4.8711zm0,0" id="svg_65"/>
  </clipPath>
  <clipPath id="clip66">
   <path d="m262.8125,1379.19531l4.87109,-1391.24219l1391.24219,4.8711l-4.87109,1391.24219l-1391.24219,-4.8711zm0,0" id="svg_66"/>
  </clipPath>
  <clipPath id="clip67">
   <path d="m1014,824l162,0l0,76l-162,0l0,-76zm0,0" id="svg_67"/>
  </clipPath>
  <clipPath id="clip68">
   <path d="m262.8125,1379.19531l4.87109,-1391.24219l1391.24219,4.8711l-4.87109,1391.24219l-1391.24219,-4.8711zm0,0" id="svg_68"/>
  </clipPath>
  <clipPath id="clip69">
   <path d="m262.8125,1379.19531l4.87109,-1391.24219l1391.24219,4.8711l-4.87109,1391.24219l-1391.24219,-4.8711zm0,0" id="svg_69"/>
  </clipPath>
  <clipPath id="clip70">
   <path d="m934,824l162,0l0,76l-162,0l0,-76zm0,0" id="svg_70"/>
  </clipPath>
  <clipPath id="clip71">
   <path d="m262.8125,1379.19531l4.87109,-1391.24219l1391.24219,4.8711l-4.87109,1391.24219l-1391.24219,-4.8711zm0,0" id="svg_71"/>
  </clipPath>
  <clipPath id="clip72">
   <path d="m262.8125,1379.19531l4.87109,-1391.24219l1391.24219,4.8711l-4.87109,1391.24219l-1391.24219,-4.8711zm0,0" id="svg_72"/>
  </clipPath>
  <clipPath id="clip73">
   <path d="m1094,685l162,0l0,141l-162,0l0,-141zm0,0" id="svg_73"/>
  </clipPath>
  <clipPath id="clip74">
   <path d="m262.8125,1379.19531l4.87109,-1391.24219l1391.24219,4.8711l-4.87109,1391.24219l-1391.24219,-4.8711zm0,0" id="svg_74"/>
  </clipPath>
  <clipPath id="clip75">
   <path d="m262.8125,1379.19531l4.87109,-1391.24219l1391.24219,4.8711l-4.87109,1391.24219l-1391.24219,-4.8711zm0,0" id="svg_75"/>
  </clipPath>
  <clipPath id="clip76">
   <path d="m1014,685l162,0l0,141l-162,0l0,-141zm0,0" id="svg_76"/>
  </clipPath>
  <clipPath id="clip77">
   <path d="m262.8125,1379.19531l4.87109,-1391.24219l1391.24219,4.8711l-4.87109,1391.24219l-1391.24219,-4.8711zm0,0" id="svg_77"/>
  </clipPath>
  <clipPath id="clip78">
   <path d="m262.8125,1379.19531l4.87109,-1391.24219l1391.24219,4.8711l-4.87109,1391.24219l-1391.24219,-4.8711zm0,0" id="svg_78"/>
  </clipPath>
  <clipPath id="clip79">
   <path d="m1094,547l162,0l0,141l-162,0l0,-141zm0,0" id="svg_79"/>
  </clipPath>
  <clipPath id="clip80">
   <path d="m262.8125,1379.19531l4.87109,-1391.24219l1391.24219,4.8711l-4.87109,1391.24219l-1391.24219,-4.8711zm0,0" id="svg_80"/>
  </clipPath>
  <clipPath id="clip81">
   <path d="m262.8125,1379.19531l4.87109,-1391.24219l1391.24219,4.8711l-4.87109,1391.24219l-1391.24219,-4.8711zm0,0" id="svg_81"/>
  </clipPath>
  <clipPath id="clip82">
   <path d="m1015,547l162,0l0,141l-162,0l0,-141zm0,0" id="svg_82"/>
  </clipPath>
  <clipPath id="clip83">
   <path d="m262.8125,1379.19531l4.87109,-1391.24219l1391.24219,4.8711l-4.87109,1391.24219l-1391.24219,-4.8711zm0,0" id="svg_83"/>
  </clipPath>
  <clipPath id="clip84">
   <path d="m262.8125,1379.19531l4.87109,-1391.24219l1391.24219,4.8711l-4.87109,1391.24219l-1391.24219,-4.8711zm0,0" id="svg_84"/>
  </clipPath>
  <clipPath id="clip85">
   <path d="m935,547l161,0l0,141l-161,0l0,-141zm0,0" id="svg_85"/>
  </clipPath>
  <clipPath id="clip86">
   <path d="m262.8125,1379.19531l4.87109,-1391.24219l1391.24219,4.8711l-4.87109,1391.24219l-1391.24219,-4.8711zm0,0" id="svg_86"/>
  </clipPath>
  <clipPath id="clip87">
   <path d="m262.8125,1379.19531l4.87109,-1391.24219l1391.24219,4.8711l-4.87109,1391.24219l-1391.24219,-4.8711zm0,0" id="svg_87"/>
  </clipPath>
  <clipPath id="clip88">
   <path d="m935,685l161,0l0,141l-161,0l0,-141zm0,0" id="svg_88"/>
  </clipPath>
  <clipPath id="clip89">
   <path d="m262.8125,1379.19531l4.87109,-1391.24219l1391.24219,4.8711l-4.87109,1391.24219l-1391.24219,-4.8711zm0,0" id="svg_89"/>
  </clipPath>
  <clipPath id="clip90">
   <path d="m262.8125,1379.19531l4.87109,-1391.24219l1391.24219,4.8711l-4.87109,1391.24219l-1391.24219,-4.8711zm0,0" id="svg_90"/>
  </clipPath>
  <clipPath id="clip91">
   <path d="m1413,825l12,0l0,75l-12,0l0,-75zm0,0" id="svg_91"/>
  </clipPath>
  <clipPath id="clip92">
   <path d="m262.8125,1379.19531l4.87109,-1391.24219l1391.24219,4.8711l-4.87109,1391.24219l-1391.24219,-4.8711zm0,0" id="svg_92"/>
  </clipPath>
  <clipPath id="clip93">
   <path d="m262.8125,1379.19531l4.87109,-1391.24219l1391.24219,4.8711l-4.87109,1391.24219l-1391.24219,-4.8711zm0,0" id="svg_93"/>
  </clipPath>
  <clipPath id="clip94">
   <path d="m1414,548l11,0l0,141l-11,0l0,-141zm0,0" id="svg_94"/>
  </clipPath>
  <clipPath id="clip95">
   <path d="m262.8125,1379.19531l4.87109,-1391.24219l1391.24219,4.8711l-4.87109,1391.24219l-1391.24219,-4.8711zm0,0" id="svg_95"/>
  </clipPath>
  <clipPath id="clip96">
   <path d="m262.8125,1379.19531l4.87109,-1391.24219l1391.24219,4.8711l-4.87109,1391.24219l-1391.24219,-4.8711zm0,0" id="svg_96"/>
  </clipPath>
  <clipPath id="clip97">
   <path d="m1414,687l11,0l0,140l-11,0l0,-140zm0,0" id="svg_97"/>
  </clipPath>
  <clipPath id="clip98">
   <path d="m262.8125,1379.19531l4.87109,-1391.24219l1391.24219,4.8711l-4.87109,1391.24219l-1391.24219,-4.8711zm0,0" id="svg_98"/>
  </clipPath>
  <clipPath id="clip99">
   <path d="m262.8125,1379.19531l4.87109,-1391.24219l1391.24219,4.8711l-4.87109,1391.24219l-1391.24219,-4.8711zm0,0" id="svg_99"/>
  </clipPath>
  <clipPath id="clip100">
   <path d="m1415,272l10,0l0,140l-10,0l0,-140zm0,0" id="svg_100"/>
  </clipPath>
  <clipPath id="clip101">
   <path d="m262.8125,1379.19531l4.87109,-1391.24219l1391.24219,4.8711l-4.87109,1391.24219l-1391.24219,-4.8711zm0,0" id="svg_101"/>
  </clipPath>
  <clipPath id="clip102">
   <path d="m262.8125,1379.19531l4.87109,-1391.24219l1391.24219,4.8711l-4.87109,1391.24219l-1391.24219,-4.8711zm0,0" id="svg_102"/>
  </clipPath>
  <clipPath id="clip103">
   <path d="m1415,410l10,0l0,141l-10,0l0,-141zm0,0" id="svg_103"/>
  </clipPath>
  <clipPath id="clip104">
   <path d="m262.8125,1379.19531l4.87109,-1391.24219l1391.24219,4.8711l-4.87109,1391.24219l-1391.24219,-4.8711zm0,0" id="svg_104"/>
  </clipPath>
  <clipPath id="clip105">
   <path d="m262.8125,1379.19531l4.87109,-1391.24219l1391.24219,4.8711l-4.87109,1391.24219l-1391.24219,-4.8711zm0,0" id="svg_105"/>
  </clipPath>
  <clipPath id="clip106">
   <path d="m1095,409l162,0l0,140l-162,0l0,-140zm0,0" id="svg_106"/>
  </clipPath>
  <clipPath id="clip107">
   <path d="m262.8125,1379.19531l4.87109,-1391.24219l1391.24219,4.8711l-4.87109,1391.24219l-1391.24219,-4.8711zm0,0" id="svg_107"/>
  </clipPath>
  <clipPath id="clip108">
   <path d="m262.8125,1379.19531l4.87109,-1391.24219l1391.24219,4.8711l-4.87109,1391.24219l-1391.24219,-4.8711zm0,0" id="svg_108"/>
  </clipPath>
  <clipPath id="clip109">
   <path d="m1015,409l162,0l0,140l-162,0l0,-140zm0,0" id="svg_109"/>
  </clipPath>
  <clipPath id="clip110">
   <path d="m262.8125,1379.19531l4.87109,-1391.24219l1391.24219,4.8711l-4.87109,1391.24219l-1391.24219,-4.8711zm0,0" id="svg_110"/>
  </clipPath>
  <clipPath id="clip111">
   <path d="m262.8125,1379.19531l4.87109,-1391.24219l1391.24219,4.8711l-4.87109,1391.24219l-1391.24219,-4.8711zm0,0" id="svg_111"/>
  </clipPath>
  <clipPath id="clip112">
   <path d="m1095,270l162,0l0,141l-162,0l0,-141zm0,0" id="svg_112"/>
  </clipPath>
  <clipPath id="clip113">
   <path d="m262.8125,1379.19531l4.87109,-1391.24219l1391.24219,4.8711l-4.87109,1391.24219l-1391.24219,-4.8711zm0,0" id="svg_113"/>
  </clipPath>
  <clipPath id="clip114">
   <path d="m262.8125,1379.19531l4.87109,-1391.24219l1391.24219,4.8711l-4.87109,1391.24219l-1391.24219,-4.8711zm0,0" id="svg_114"/>
  </clipPath>
  <clipPath id="clip115">
   <path d="m1016,270l162,0l0,141l-162,0l0,-141zm0,0" id="svg_115"/>
  </clipPath>
  <clipPath id="clip116">
   <path d="m262.8125,1379.19531l4.87109,-1391.24219l1391.24219,4.8711l-4.87109,1391.24219l-1391.24219,-4.8711zm0,0" id="svg_116"/>
  </clipPath>
  <clipPath id="clip117">
   <path d="m262.8125,1379.19531l4.87109,-1391.24219l1391.24219,4.8711l-4.87109,1391.24219l-1391.24219,-4.8711zm0,0" id="svg_117"/>
  </clipPath>
  <clipPath id="clip118">
   <path d="m856,269l162,0l0,141l-162,0l0,-141zm0,0" id="svg_118"/>
  </clipPath>
  <clipPath id="clip119">
   <path d="m262.8125,1379.19531l4.87109,-1391.24219l1391.24219,4.8711l-4.87109,1391.24219l-1391.24219,-4.8711zm0,0" id="svg_119"/>
  </clipPath>
  <clipPath id="clip120">
   <path d="m262.8125,1379.19531l4.87109,-1391.24219l1391.24219,4.8711l-4.87109,1391.24219l-1391.24219,-4.8711zm0,0" id="svg_120"/>
  </clipPath>
  <clipPath id="clip121">
   <path d="m935,270l162,0l0,141l-162,0l0,-141zm0,0" id="svg_121"/>
  </clipPath>
  <clipPath id="clip122">
   <path d="m262.8125,1379.19531l4.87109,-1391.24219l1391.24219,4.8711l-4.87109,1391.24219l-1391.24219,-4.8711zm0,0" id="svg_122"/>
  </clipPath>
  <clipPath id="clip123">
   <path d="m262.8125,1379.19531l4.87109,-1391.24219l1391.24219,4.8711l-4.87109,1391.24219l-1391.24219,-4.8711zm0,0" id="svg_123"/>
  </clipPath>
  <clipPath id="clip124">
   <path d="m935,408l162,0l0,141l-162,0l0,-141zm0,0" id="svg_124"/>
  </clipPath>
  <clipPath id="clip125">
   <path d="m262.8125,1379.19531l4.87109,-1391.24219l1391.24219,4.8711l-4.87109,1391.24219l-1391.24219,-4.8711zm0,0" id="svg_125"/>
  </clipPath>
  <clipPath id="clip126">
   <path d="m262.8125,1379.19531l4.87109,-1391.24219l1391.24219,4.8711l-4.87109,1391.24219l-1391.24219,-4.8711zm0,0" id="svg_126"/>
  </clipPath>
  <clipPath id="clip127">
   <path d="m1416,0l9,0l0,136l-9,0l0,-136zm0,0" id="svg_127"/>
  </clipPath>
  <clipPath id="clip128">
   <path d="m262.8125,1379.19531l4.87109,-1391.24219l1391.24219,4.8711l-4.87109,1391.24219l-1391.24219,-4.8711zm0,0" id="svg_128"/>
  </clipPath>
  <clipPath id="clip129">
   <path d="m262.8125,1379.19531l4.87109,-1391.24219l1391.24219,4.8711l-4.87109,1391.24219l-1391.24219,-4.8711zm0,0" id="svg_129"/>
  </clipPath>
  <clipPath id="clip130">
   <path d="m1416,133l9,0l0,141l-9,0l0,-141zm0,0" id="svg_130"/>
  </clipPath>
  <clipPath id="clip131">
   <path d="m262.8125,1379.19531l4.87109,-1391.24219l1391.24219,4.8711l-4.87109,1391.24219l-1391.24219,-4.8711zm0,0" id="svg_131"/>
  </clipPath>
  <clipPath id="clip132">
   <path d="m262.8125,1379.19531l4.87109,-1391.24219l1391.24219,4.8711l-4.87109,1391.24219l-1391.24219,-4.8711zm0,0" id="svg_132"/>
  </clipPath>
  <clipPath id="clip133">
   <path d="m1096,132l162,0l0,141l-162,0l0,-141zm0,0" id="svg_133"/>
  </clipPath>
  <clipPath id="clip134">
   <path d="m262.8125,1379.19531l4.87109,-1391.24219l1391.24219,4.8711l-4.87109,1391.24219l-1391.24219,-4.8711zm0,0" id="svg_134"/>
  </clipPath>
  <clipPath id="clip135">
   <path d="m262.8125,1379.19531l4.87109,-1391.24219l1391.24219,4.8711l-4.87109,1391.24219l-1391.24219,-4.8711zm0,0" id="svg_135"/>
  </clipPath>
  <clipPath id="clip136">
   <path d="m1016,132l162,0l0,141l-162,0l0,-141zm0,0" id="svg_136"/>
  </clipPath>
  <clipPath id="clip137">
   <path d="m262.8125,1379.19531l4.87109,-1391.24219l1391.24219,4.8711l-4.87109,1391.24219l-1391.24219,-4.8711zm0,0" id="svg_137"/>
  </clipPath>
  <clipPath id="clip138">
   <path d="m262.8125,1379.19531l4.87109,-1391.24219l1391.24219,4.8711l-4.87109,1391.24219l-1391.24219,-4.8711zm0,0" id="svg_138"/>
  </clipPath>
  <clipPath id="clip139">
   <path d="m856,131l162,0l0,141l-162,0l0,-141zm0,0" id="svg_139"/>
  </clipPath>
  <clipPath id="clip140">
   <path d="m262.8125,1379.19531l4.87109,-1391.24219l1391.24219,4.8711l-4.87109,1391.24219l-1391.24219,-4.8711zm0,0" id="svg_140"/>
  </clipPath>
  <clipPath id="clip141">
   <path d="m262.8125,1379.19531l4.87109,-1391.24219l1391.24219,4.8711l-4.87109,1391.24219l-1391.24219,-4.8711zm0,0" id="svg_141"/>
  </clipPath>
  <clipPath id="clip142">
   <path d="m1096,0l162,0l0,135l-162,0l0,-135zm0,0" id="svg_142"/>
  </clipPath>
  <clipPath id="clip143">
   <path d="m262.8125,1379.19531l4.87109,-1391.24219l1391.24219,4.8711l-4.87109,1391.24219l-1391.24219,-4.8711zm0,0" id="svg_143"/>
  </clipPath>
  <clipPath id="clip144">
   <path d="m262.8125,1379.19531l4.87109,-1391.24219l1391.24219,4.8711l-4.87109,1391.24219l-1391.24219,-4.8711zm0,0" id="svg_144"/>
  </clipPath>
  <clipPath id="clip145">
   <path d="m934,686l321,0l0,214l-321,0l0,-214zm0,0" id="svg_145"/>
  </clipPath>
  <clipPath id="clip146">
   <path d="m262.8125,1379.19531l4.87109,-1391.24219l1391.24219,4.8711l-4.87109,1391.24219l-1391.24219,-4.8711zm0,0" id="svg_146"/>
  </clipPath>
  <clipPath id="clip147">
   <path d="m262.8125,1379.19531l4.87109,-1391.24219l1391.24219,4.8711l-4.87109,1391.24219l-1391.24219,-4.8711zm0,0" id="svg_147"/>
  </clipPath>
  <clipPath id="clip148">
   <path d="m1095,686l330,0l0,214l-330,0l0,-214zm0,0" id="svg_148"/>
  </clipPath>
  <clipPath id="clip149">
   <path d="m262.8125,1379.19531l4.87109,-1391.24219l1391.24219,4.8711l-4.87109,1391.24219l-1391.24219,-4.8711zm0,0" id="svg_149"/>
  </clipPath>
  <clipPath id="clip150">
   <path d="m262.8125,1379.19531l4.87109,-1391.24219l1391.24219,4.8711l-4.87109,1391.24219l-1391.24219,-4.8711zm0,0" id="svg_150"/>
  </clipPath>
  <clipPath id="clip151">
   <path d="m1415,411l10,0l0,489l-10,0l0,-489zm0,0" id="svg_151"/>
  </clipPath>
  <clipPath id="clip152">
   <path d="m262.8125,1379.19531l4.87109,-1391.24219l1391.24219,4.8711l-4.87109,1391.24219l-1391.24219,-4.8711zm0,0" id="svg_152"/>
  </clipPath>
  <clipPath id="clip153">
   <path d="m262.8125,1379.19531l4.87109,-1391.24219l1391.24219,4.8711l-4.87109,1391.24219l-1391.24219,-4.8711zm0,0" id="svg_153"/>
  </clipPath>
  <clipPath id="clip154">
   <path d="m1336,0l89,0l0,550l-89,0l0,-550zm0,0" id="svg_154"/>
  </clipPath>
  <clipPath id="clip155">
   <path d="m262.8125,1379.19531l4.87109,-1391.24219l1391.24219,4.8711l-4.87109,1391.24219l-1391.24219,-4.8711zm0,0" id="svg_155"/>
  </clipPath>
  <clipPath id="clip156">
   <path d="m262.8125,1379.19531l4.87109,-1391.24219l1391.24219,4.8711l-4.87109,1391.24219l-1391.24219,-4.8711zm0,0" id="svg_156"/>
  </clipPath>
 </defs>
 <g>
  <title>Layer 1</title>
  <g clip-path="url(#clip1)" clip-rule="nonzero" id="svg_157">
   <g clip-path="url(#clip2)" clip-rule="nonzero" id="svg_158">
    <g clip-path="url(#clip3)" clip-rule="nonzero" id="svg_159">
     <path d="m1414.05078,963.21875l79.38281,-136.35156l-157.78125,-0.55469l78.39844,136.90625zm80.97266,-136.92969c0,0.08985 -0.02344,0.1836 -0.07031,0.27735l-80.39063,138.125c-0.09375,0.1875 -0.30469,0.28125 -0.51562,0.28125c-0.1875,-0.00391 -0.39844,-0.09766 -0.49219,-0.28516l-79.42188,-138.68359c-0.11328,-0.1875 -0.11328,-0.39844 0.00391,-0.58203c0.09375,-0.16407 0.28125,-0.28125 0.49219,-0.28125l159.8125,0.55859c0.21093,0.00391 0.39453,0.12109 0.51172,0.28516c0.04687,0.09375 0.07031,0.21093 0.07031,0.30468" fill="rgb(0%,0%,0%)" fill-rule="nonzero" id="svg_160"/>
    </g>
   </g>
  </g>
  <g clip-path="url(#clip4)" clip-rule="nonzero" id="svg_161">
   <g clip-path="url(#clip5)" clip-rule="nonzero" id="svg_162">
    <g clip-path="url(#clip6)" clip-rule="nonzero" id="svg_163">
     <path d="m1255.26563,963.24609l157.78125,0.55079l-78.42579,-136.90235l-79.35546,136.35156zm159.36718,1.14063c0,0.11719 -0.02343,0.21094 -0.07031,0.30469c-0.09375,0.1875 -0.30469,0.28125 -0.51562,0.28125l-159.78907,-0.5625c-0.21093,0 -0.42187,-0.09375 -0.51562,-0.28125c-0.11328,-0.1875 -0.11328,-0.39844 0.0039,-0.58594l80.39063,-138.12109c0.09375,-0.16407 0.28125,-0.28125 0.49219,-0.28125c0.21093,0 0.42187,0.12109 0.51172,0.28125l79.42187,138.6875c0.04688,0.09375 0.07031,0.1875 0.07031,0.27734" fill="rgb(0%,0%,0%)" fill-rule="nonzero" id="svg_164"/>
    </g>
   </g>
  </g>
  <g clip-path="url(#clip7)" clip-rule="nonzero" id="svg_165">
   <g clip-path="url(#clip8)" clip-rule="nonzero" id="svg_166">
    <g clip-path="url(#clip9)" clip-rule="nonzero" id="svg_167">
     <path d="m1335.65625,825.14453l157.78125,0.55469l-78.42578,-136.92969l-79.35547,136.375zm159.36719,1.14453c0,0.09375 -0.02344,0.1836 -0.07031,0.27735c-0.11719,0.1875 -0.30469,0.30468 -0.51563,0.30468l-159.8125,-0.5625c-0.21094,0 -0.39844,-0.11718 -0.48828,-0.30468c-0.11719,-0.1875 -0.11719,-0.39844 0,-0.58203l80.39062,-138.125c0.09375,-0.16407 0.30469,-0.28125 0.49219,-0.28125c0.21094,0.0039 0.42188,0.12109 0.51172,0.28515l79.42188,138.6836c0.04687,0.09375 0.07031,0.21093 0.07031,0.30468" fill="rgb(0%,0%,0%)" fill-rule="nonzero" id="svg_168"/>
    </g>
   </g>
  </g>
  <g clip-path="url(#clip10)" clip-rule="nonzero" id="svg_169">
   <g clip-path="url(#clip11)" clip-rule="nonzero" id="svg_170">
    <g clip-path="url(#clip12)" clip-rule="nonzero" id="svg_171">
     <path d="m1334.62891,824.55859l79.38281,-136.375l-157.78125,-0.55468l78.39844,136.92968zm80.97265,-136.95703c0,0.09375 -0.02343,0.21094 -0.07031,0.28125l-80.39062,138.125c-0.09375,0.1875 -0.30469,0.30469 -0.51563,0.30078c-0.21094,0 -0.39844,-0.11718 -0.48828,-0.30468l-79.42188,-138.6836c-0.11718,-0.16406 -0.11718,-0.39843 0,-0.58593c0.09375,-0.16016 0.30469,-0.27735 0.51563,-0.27735l159.78906,0.5586c0.21094,0.0039 0.42188,0.12109 0.51172,0.28515c0.04688,0.09375 0.07031,0.20703 0.07031,0.30078" fill="rgb(0%,0%,0%)" fill-rule="nonzero" id="svg_172"/>
    </g>
   </g>
  </g>
  <g clip-path="url(#clip13)" clip-rule="nonzero" id="svg_173">
   <g clip-path="url(#clip14)" clip-rule="nonzero" id="svg_174">
    <g clip-path="url(#clip15)" clip-rule="nonzero" id="svg_175">
     <path d="m1175.84375,824.58594l157.78125,0.55078l-78.40234,-136.92578l-79.37891,136.375zm159.36719,1.14062c0,0.09375 -0.02344,0.1875 -0.07031,0.28125c-0.09375,0.1875 -0.30469,0.30469 -0.51563,0.30078l-159.78906,-0.55859c-0.21094,0 -0.39844,-0.11719 -0.51172,-0.30469c-0.09375,-0.1875 -0.09375,-0.39843 0,-0.58593l80.39062,-138.125c0.09375,-0.16016 0.30469,-0.27735 0.51563,-0.27735c0.21094,0 0.39844,0.11719 0.48828,0.28125l79.42188,138.6836c0.04687,0.09375 0.07031,0.21093 0.07031,0.30468" fill="rgb(0%,0%,0%)" fill-rule="nonzero" id="svg_176"/>
    </g>
   </g>
  </g>
  <g clip-path="url(#clip16)" clip-rule="nonzero" id="svg_177">
   <g clip-path="url(#clip17)" clip-rule="nonzero" id="svg_178">
    <g clip-path="url(#clip18)" clip-rule="nonzero" id="svg_179">
     <path d="m1254.26172,962.66016l79.35937,-136.35547l-157.78125,-0.55078l78.42188,136.90625zm80.94922,-136.9336c0,0.09375 -0.02344,0.1875 -0.07031,0.28125l-80.39063,138.125c-0.09375,0.1875 -0.28125,0.27735 -0.49219,0.27735c-0.21093,0 -0.42187,-0.09375 -0.51562,-0.28125l-79.41797,-138.6836c-0.09375,-0.1875 -0.09375,-0.39843 0,-0.58593c0.11719,-0.16016 0.30469,-0.27735 0.51562,-0.27735l159.78907,0.5586c0.21093,0 0.42187,0.12109 0.51172,0.28125c0.04687,0.09375 0.07031,0.21093 0.07031,0.30468" fill="rgb(0%,0%,0%)" fill-rule="nonzero" id="svg_180"/>
    </g>
   </g>
  </g>
  <g clip-path="url(#clip19)" clip-rule="nonzero" id="svg_181">
   <g clip-path="url(#clip20)" clip-rule="nonzero" id="svg_182">
    <g clip-path="url(#clip21)" clip-rule="nonzero" id="svg_183">
     <path d="m1415.02344,686.43359l79.3789,-136.375l-157.78125,-0.55468l78.40235,136.92968zm80.96875,-136.95312c0,0.11328 -0.02344,0.20703 -0.07031,0.30078l-80.39063,138.10156c-0.09375,0.1875 -0.30469,0.30469 -0.51562,0.30078c-0.1875,0 -0.39844,-0.11718 -0.48829,-0.30468l-79.42187,-138.66016c-0.11719,-0.1875 -0.11719,-0.39844 0,-0.58203c0.09375,-0.1875 0.28125,-0.30469 0.49219,-0.30469l159.8125,0.5586c0.21093,0.0039 0.39843,0.12109 0.51172,0.30859c0.04687,0.09375 0.07031,0.1875 0.07031,0.28125" fill="rgb(0%,0%,0%)" fill-rule="nonzero" id="svg_184"/>
    </g>
   </g>
  </g>
  <g clip-path="url(#clip22)" clip-rule="nonzero" id="svg_185">
   <g clip-path="url(#clip23)" clip-rule="nonzero" id="svg_186">
    <g clip-path="url(#clip24)" clip-rule="nonzero" id="svg_187">
     <path d="m1256.23438,686.46094l157.78125,0.55078l-78.42579,-136.92578l-79.35546,136.375zm159.36718,1.14062c0,0.09375 -0.02343,0.21094 -0.07031,0.28125c-0.09375,0.1875 -0.30469,0.30469 -0.51562,0.30078l-159.78907,-0.55859c-0.21093,0 -0.42187,-0.11719 -0.51172,-0.30469c-0.11718,-0.16406 -0.11718,-0.39843 0,-0.58593l80.39063,-138.09766c0.09375,-0.1875 0.28125,-0.30469 0.49219,-0.30469c0.21093,0 0.42187,0.11719 0.51172,0.30469l79.42187,138.66406c0.04688,0.09375 0.07031,0.20703 0.07031,0.30078" fill="rgb(0%,0%,0%)" fill-rule="nonzero" id="svg_188"/>
    </g>
   </g>
  </g>
  <g clip-path="url(#clip25)" clip-rule="nonzero" id="svg_189">
   <g clip-path="url(#clip26)" clip-rule="nonzero" id="svg_190">
    <g clip-path="url(#clip27)" clip-rule="nonzero" id="svg_191">
     <path d="m1336.625,548.33594l157.78125,0.55469l-78.42578,-136.90625l-79.35547,136.35156zm159.36719,1.14453c0,0.11328 -0.02344,0.20703 -0.07031,0.30078c-0.11719,0.1875 -0.30469,0.28125 -0.51563,0.28125l-159.8125,-0.5625c-0.21094,0 -0.39844,-0.09375 -0.48828,-0.28125c-0.11719,-0.1875 -0.11719,-0.39844 0,-0.58203l80.39062,-138.125c0.09375,-0.16406 0.30469,-0.28125 0.49219,-0.28125c0.21094,0.00391 0.42188,0.12109 0.51172,0.28516l79.42188,138.68359c0.04687,0.09375 0.07031,0.1875 0.07031,0.28125" fill="rgb(0%,0%,0%)" fill-rule="nonzero" id="svg_192"/>
    </g>
   </g>
  </g>
  <g clip-path="url(#clip28)" clip-rule="nonzero" id="svg_193">
   <g clip-path="url(#clip29)" clip-rule="nonzero" id="svg_194">
    <g clip-path="url(#clip30)" clip-rule="nonzero" id="svg_195">
     <path d="m1335.60156,547.75l79.37891,-136.35156l-157.78125,-0.55469l78.40234,136.90625zm80.96875,-136.93359c0,0.09375 -0.02343,0.1875 -0.07031,0.28125l-80.39062,138.125c-0.09375,0.1875 -0.30469,0.28125 -0.51563,0.27734c-0.21094,0 -0.39844,-0.09375 -0.48828,-0.28125l-79.42188,-138.68359c-0.11718,-0.16407 -0.11718,-0.39844 0,-0.58594c0.09375,-0.16016 0.30469,-0.27734 0.51563,-0.27734l159.78906,0.55859c0.21094,0.00391 0.42188,0.12109 0.51172,0.28516c0.04688,0.09375 0.07031,0.1875 0.07031,0.30078" fill="rgb(0%,0%,0%)" fill-rule="nonzero" id="svg_196"/>
    </g>
   </g>
  </g>
  <g clip-path="url(#clip31)" clip-rule="nonzero" id="svg_197">
   <g clip-path="url(#clip32)" clip-rule="nonzero" id="svg_198">
    <g clip-path="url(#clip33)" clip-rule="nonzero" id="svg_199">
     <path d="m1176.8125,547.77734l157.78125,0.55079l-78.39844,-136.90235l-79.38281,136.35156zm159.36719,1.14063c0,0.11719 -0.02344,0.21094 -0.07031,0.30469c-0.09375,0.1875 -0.30469,0.28125 -0.51563,0.27734l-159.78906,-0.55859c-0.21094,0 -0.39844,-0.09375 -0.51172,-0.28125c-0.09375,-0.1875 -0.09375,-0.39844 0,-0.58594l80.39062,-138.125c0.09375,-0.16016 0.30469,-0.27734 0.51563,-0.27734c0.21094,0 0.39844,0.11718 0.48828,0.28125l79.42188,138.68359c0.04687,0.09375 0.07031,0.1875 0.07031,0.28125" fill="rgb(0%,0%,0%)" fill-rule="nonzero" id="svg_200"/>
    </g>
   </g>
  </g>
  <g clip-path="url(#clip34)" clip-rule="nonzero" id="svg_201">
   <g clip-path="url(#clip35)" clip-rule="nonzero" id="svg_202">
    <g clip-path="url(#clip36)" clip-rule="nonzero" id="svg_203">
     <path d="m1255.23438,685.875l79.35546,-136.37891l-157.78125,-0.55078l78.42579,136.92969zm80.94531,-136.95703c0,0.11719 -0.02344,0.21094 -0.07031,0.30469l-80.39063,138.10156c-0.09375,0.1875 -0.28125,0.30078 -0.49219,0.30078c-0.21093,0 -0.42187,-0.11719 -0.51172,-0.30469l-79.42187,-138.66015c-0.09375,-0.1875 -0.09375,-0.39844 0,-0.58594c0.11719,-0.18359 0.30469,-0.30078 0.51562,-0.30078l159.78907,0.55859c0.21093,0 0.42187,0.11719 0.51172,0.30469c0.04687,0.09375 0.07031,0.1875 0.07031,0.28125" fill="rgb(0%,0%,0%)" fill-rule="nonzero" id="svg_204"/>
    </g>
   </g>
  </g>
  <g clip-path="url(#clip37)" clip-rule="nonzero" id="svg_205">
   <g clip-path="url(#clip38)" clip-rule="nonzero" id="svg_206">
    <g clip-path="url(#clip39)" clip-rule="nonzero" id="svg_207">
     <path d="m1415.99219,409.64844l79.3789,-136.375l-157.78125,-0.55469l78.40235,136.92969zm80.96875,-136.95313c0,0.08985 -0.02344,0.20703 -0.07031,0.30078l-80.39063,138.10157c-0.09375,0.1875 -0.30469,0.30468 -0.51562,0.30078c-0.1875,0 -0.39844,-0.11719 -0.48829,-0.30469l-79.42187,-138.66016c-0.11719,-0.1875 -0.11719,-0.42187 0,-0.58203c0.09375,-0.1875 0.28125,-0.30468 0.49219,-0.30468l159.8125,0.55859c0.21093,0.00391 0.39843,0.12109 0.51172,0.30859c0.04687,0.07032 0.07031,0.1875 0.07031,0.28125" fill="rgb(0%,0%,0%)" fill-rule="nonzero" id="svg_208"/>
    </g>
   </g>
  </g>
  <g clip-path="url(#clip40)" clip-rule="nonzero" id="svg_209">
   <g clip-path="url(#clip41)" clip-rule="nonzero" id="svg_210">
    <g clip-path="url(#clip42)" clip-rule="nonzero" id="svg_211">
     <path d="m1257.20313,409.67578l157.78125,0.55078l-78.42188,-136.92578l-79.35937,136.375zm159.36718,1.14063c0,0.09375 -0.02343,0.1875 -0.07031,0.28125c-0.09375,0.1875 -0.30469,0.30468 -0.51562,0.30078l-159.78907,-0.5586c-0.21093,0 -0.42187,-0.11718 -0.51172,-0.30468c-0.11718,-0.16407 -0.11718,-0.39844 0,-0.58594l80.39063,-138.09766c0.09375,-0.1875 0.28125,-0.30468 0.49219,-0.30468c0.21093,0 0.42187,0.11718 0.51562,0.30468l79.41797,138.66407c0.04688,0.09375 0.07031,0.18359 0.07031,0.30078" fill="rgb(0%,0%,0%)" fill-rule="nonzero" id="svg_212"/>
    </g>
   </g>
  </g>
  <g clip-path="url(#clip43)" clip-rule="nonzero" id="svg_213">
   <g clip-path="url(#clip44)" clip-rule="nonzero" id="svg_214">
    <g clip-path="url(#clip45)" clip-rule="nonzero" id="svg_215">
     <path d="m1337.59375,271.55078l157.78125,0.55469l-78.42187,-136.92969l-79.35938,136.375zm159.36719,1.14453c0,0.08985 -0.02344,0.20703 -0.07031,0.30078c-0.11719,0.16407 -0.30469,0.28125 -0.51563,0.28125l-159.8125,-0.5625c-0.21094,0 -0.39453,-0.11718 -0.48828,-0.28125c-0.11719,-0.1875 -0.11719,-0.42187 0,-0.58203l80.39062,-138.125c0.09375,-0.1875 0.30469,-0.30468 0.49219,-0.30468c0.21094,0 0.42188,0.12109 0.51563,0.30859l79.41797,138.68359c0.04687,0.07032 0.07031,0.1875 0.07031,0.28125" fill="rgb(0%,0%,0%)" fill-rule="nonzero" id="svg_216"/>
    </g>
   </g>
  </g>
  <g clip-path="url(#clip46)" clip-rule="nonzero" id="svg_217">
   <g clip-path="url(#clip47)" clip-rule="nonzero" id="svg_218">
    <g clip-path="url(#clip48)" clip-rule="nonzero" id="svg_219">
     <path d="m1336.57031,270.96484l79.37891,-136.375l-157.78125,-0.55468l78.40234,136.92968zm80.96875,-136.95703c0,0.11719 -0.02343,0.21094 -0.07031,0.30469l-80.39062,138.125c-0.09375,0.16406 -0.30469,0.28125 -0.51563,0.27734c-0.21094,0 -0.39844,-0.11718 -0.48828,-0.28125l-79.42188,-138.68359c-0.11718,-0.1875 -0.11718,-0.39844 0,-0.58594c0.09375,-0.18359 0.30469,-0.30078 0.51563,-0.30078l159.78906,0.5586c0.21094,0 0.42188,0.12109 0.51563,0.30859c0.04297,0.09375 0.0664,0.18359 0.0664,0.27734" fill="rgb(0%,0%,0%)" fill-rule="nonzero" id="svg_220"/>
    </g>
   </g>
  </g>
  <g clip-path="url(#clip49)" clip-rule="nonzero" id="svg_221">
   <g clip-path="url(#clip50)" clip-rule="nonzero" id="svg_222">
    <g clip-path="url(#clip51)" clip-rule="nonzero" id="svg_223">
     <path d="m1177.78125,270.99219l157.78125,0.55078l-78.39844,-136.92578l-79.38281,136.375zm159.36719,1.14062c0,0.09375 -0.02344,0.21094 -0.07031,0.30469c-0.09375,0.16406 -0.30469,0.28125 -0.51563,0.27734l-159.78906,-0.55859c-0.21094,0 -0.39453,-0.11719 -0.51172,-0.28125c-0.09375,-0.1875 -0.09375,-0.42187 0,-0.58594l80.39062,-138.125c0.09375,-0.18359 0.30469,-0.30078 0.51563,-0.30078c0.21094,0 0.39844,0.11719 0.49219,0.30469l79.42187,138.68359c0.04297,0.07032 0.06641,0.1875 0.06641,0.28125" fill="rgb(0%,0%,0%)" fill-rule="nonzero" id="svg_224"/>
    </g>
   </g>
  </g>
  <g clip-path="url(#clip52)" clip-rule="nonzero" id="svg_225">
   <g clip-path="url(#clip53)" clip-rule="nonzero" id="svg_226">
    <g clip-path="url(#clip54)" clip-rule="nonzero" id="svg_227">
     <path d="m1256.20313,409.08984l79.35546,-136.3789l-157.78125,-0.55078l78.42579,136.92968zm80.94531,-136.95703c0,0.09375 -0.02344,0.21094 -0.07031,0.30469l-80.39063,138.10156c-0.09375,0.1875 -0.28125,0.30078 -0.49219,0.30078c-0.21093,0 -0.42187,-0.11718 -0.51172,-0.30468l-79.42187,-138.66016c-0.09375,-0.1875 -0.09375,-0.42187 0,-0.58594c0.11719,-0.18359 0.30469,-0.30078 0.51562,-0.30078l159.78907,0.5586c0.21093,0 0.42187,0.11718 0.51562,0.30468c0.04297,0.07032 0.06641,0.1875 0.06641,0.28125" fill="rgb(0%,0%,0%)" fill-rule="nonzero" id="svg_228"/>
    </g>
   </g>
  </g>
  <g clip-path="url(#clip55)" clip-rule="nonzero" id="svg_229">
   <g clip-path="url(#clip56)" clip-rule="nonzero" id="svg_230">
    <g clip-path="url(#clip57)" clip-rule="nonzero" id="svg_231">
     <path d="m1416.96094,132.83984l79.3789,-136.35156l-157.78125,-0.55469l78.40235,136.90625zm80.96875,-136.92968c0,0.08984 -0.02344,0.18359 -0.07031,0.27734l-80.39063,138.125c-0.09375,0.1875 -0.30469,0.28125 -0.51562,0.27734c-0.1875,0 -0.39844,-0.09375 -0.48829,-0.28125l-79.42187,-138.68359c-0.11719,-0.1875 -0.11719,-0.39844 0,-0.58203c0.09375,-0.1875 0.28125,-0.28125 0.49219,-0.28125l159.8125,0.55859c0.21093,0.00391 0.39843,0.09766 0.51562,0.28516c0.04297,0.09375 0.06641,0.1875 0.06641,0.30469" fill="rgb(0%,0%,0%)" fill-rule="nonzero" id="svg_232"/>
    </g>
   </g>
  </g>
  <g clip-path="url(#clip58)" clip-rule="nonzero" id="svg_233">
   <g clip-path="url(#clip59)" clip-rule="nonzero" id="svg_234">
    <g clip-path="url(#clip60)" clip-rule="nonzero" id="svg_235">
     <path d="m1258.17188,132.86719l157.78125,0.55078l-78.42188,-136.90235l-79.35937,136.35157zm159.36718,1.14062c0,0.11719 -0.02343,0.21094 -0.07031,0.30469c-0.09375,0.1875 -0.30469,0.28125 -0.51562,0.27734l-159.78907,-0.55859c-0.21093,0 -0.41797,-0.09375 -0.51172,-0.28125c-0.11718,-0.1875 -0.11718,-0.39844 0,-0.58594l80.39063,-138.12109c0.09375,-0.1875 0.28125,-0.28125 0.49219,-0.28125c0.21093,0 0.42187,0.09375 0.51562,0.28125l79.42188,138.6875c0.04297,0.09375 0.0664,0.18359 0.0664,0.27734" fill="rgb(0%,0%,0%)" fill-rule="nonzero" id="svg_236"/>
    </g>
   </g>
  </g>
  <g clip-path="url(#clip61)" clip-rule="nonzero" id="svg_237">
   <g clip-path="url(#clip62)" clip-rule="nonzero" id="svg_238">
    <g clip-path="url(#clip63)" clip-rule="nonzero" id="svg_239">
     <path d="m1257.17188,132.28125l79.35546,-136.35547l-157.78125,-0.55078l78.42579,136.90625zm80.94531,-136.93359c0,0.09375 -0.02344,0.1875 -0.07031,0.28125l-80.39063,138.125c-0.09375,0.1875 -0.28125,0.27734 -0.49219,0.27734c-0.21093,0 -0.41797,-0.09375 -0.51172,-0.28125l-79.42187,-138.68359c-0.09375,-0.1875 -0.09375,-0.39844 0,-0.58594c0.11719,-0.1836 0.30469,-0.27735 0.51562,-0.27735l159.78907,0.5586c0.21093,0 0.42187,0.09375 0.51562,0.28125c0.04688,0.09375 0.06641,0.1875 0.06641,0.30469" fill="rgb(0%,0%,0%)" fill-rule="nonzero" id="svg_240"/>
    </g>
   </g>
  </g>
  <g clip-path="url(#clip64)" clip-rule="nonzero" id="svg_241">
   <g clip-path="url(#clip65)" clip-rule="nonzero" id="svg_242">
    <g clip-path="url(#clip66)" clip-rule="nonzero" id="svg_243">
     <path d="m1095.45313,962.6875l157.78125,0.55078l-78.40235,-136.90234l-79.3789,136.35156zm159.39062,1.14063c0,0.11718 -0.04687,0.21093 -0.09375,0.30468c-0.09375,0.1875 -0.28125,0.27735 -0.49219,0.27735l-159.8125,-0.5586c-0.21093,0 -0.39843,-0.09375 -0.51172,-0.28125c-0.09375,-0.1875 -0.09375,-0.39843 0,-0.58593l80.39063,-138.125c0.11719,-0.16016 0.30469,-0.27735 0.51562,-0.27735c0.1875,0 0.39844,0.11719 0.48829,0.28125l79.42187,138.6836c0.04688,0.09375 0.09375,0.1875 0.09375,0.28125" fill="rgb(0%,0%,0%)" fill-rule="nonzero" id="svg_244"/>
    </g>
   </g>
  </g>
  <g clip-path="url(#clip67)" clip-rule="nonzero" id="svg_245">
   <g clip-path="url(#clip68)" clip-rule="nonzero" id="svg_246">
    <g clip-path="url(#clip69)" clip-rule="nonzero" id="svg_247">
     <path d="m1094.44922,962.09766l79.35937,-136.35157l-157.78125,-0.55078l78.42188,136.90235zm80.97266,-136.92969c0,0.09375 -0.02344,0.1875 -0.09375,0.28125l-80.36719,138.125c-0.11719,0.18359 -0.30469,0.27734 -0.51563,0.27734c-0.21093,0 -0.39843,-0.09375 -0.51172,-0.28125l-79.42187,-138.68359c-0.09375,-0.1875 -0.09375,-0.39844 0,-0.58594c0.11719,-0.16406 0.30469,-0.27734 0.51562,-0.27734l159.8125,0.55859c0.1875,0 0.39844,0.11719 0.48829,0.28125c0.07031,0.09375 0.09375,0.21094 0.09375,0.30469" fill="rgb(0%,0%,0%)" fill-rule="nonzero" id="svg_248"/>
    </g>
   </g>
  </g>
  <g clip-path="url(#clip70)" clip-rule="nonzero" id="svg_249">
   <g clip-path="url(#clip71)" clip-rule="nonzero" id="svg_250">
    <g clip-path="url(#clip72)" clip-rule="nonzero" id="svg_251">
     <path d="m935.64063,962.12891l157.80468,0.55078l-78.42578,-136.90625l-79.3789,136.35547zm159.39062,1.14062c0,0.11719 -0.02344,0.21094 -0.07031,0.30469c-0.11719,0.18359 -0.30469,0.27734 -0.51563,0.27734l-159.8125,-0.55859c-0.21093,0 -0.39843,-0.09375 -0.51172,-0.28125c-0.09375,-0.1875 -0.09375,-0.39844 0,-0.58594l80.39063,-138.125c0.11719,-0.16406 0.30469,-0.27734 0.51562,-0.27734c0.21094,0 0.39844,0.11719 0.48829,0.28125l79.44531,138.68359c0.04687,0.09375 0.07031,0.1875 0.07031,0.28125" fill="rgb(0%,0%,0%)" fill-rule="nonzero" id="svg_252"/>
    </g>
   </g>
  </g>
  <g clip-path="url(#clip73)" clip-rule="nonzero" id="svg_253">
   <g clip-path="url(#clip74)" clip-rule="nonzero" id="svg_254">
    <g clip-path="url(#clip75)" clip-rule="nonzero" id="svg_255">
     <path d="m1174.83984,823.99609l79.35938,-136.375l-157.78125,-0.55078l78.42187,136.92578zm80.97266,-136.95312c0,0.09375 -0.04687,0.21094 -0.09375,0.28125l-80.39062,138.125c-0.09375,0.1875 -0.30469,0.30078 -0.49219,0.30078c-0.21094,0 -0.39844,-0.11719 -0.51172,-0.30469l-79.42188,-138.68359c-0.09375,-0.16406 -0.09375,-0.39844 0,-0.58594c0.11719,-0.16406 0.30469,-0.27734 0.51563,-0.27734l159.8125,0.55859c0.21094,0 0.39844,0.11719 0.48828,0.28125c0.04688,0.09375 0.09375,0.21094 0.09375,0.30469" fill="rgb(0%,0%,0%)" fill-rule="nonzero" id="svg_256"/>
    </g>
   </g>
  </g>
  <g clip-path="url(#clip76)" clip-rule="nonzero" id="svg_257">
   <g clip-path="url(#clip77)" clip-rule="nonzero" id="svg_258">
    <g clip-path="url(#clip78)" clip-rule="nonzero" id="svg_259">
     <path d="m1016.03125,824.02734l157.78125,0.55079l-78.40234,-136.92579l-79.37891,136.375zm159.39063,1.14063c0,0.09375 -0.02344,0.1875 -0.09375,0.28125c-0.09375,0.1875 -0.30469,0.30078 -0.49219,0.30078l-159.8125,-0.55859c-0.21094,0 -0.39844,-0.11719 -0.51172,-0.30469c-0.09375,-0.1875 -0.09375,-0.39844 0,-0.58594l80.39062,-138.125c0.11719,-0.16406 0.30469,-0.27734 0.51563,-0.27734c0.21094,0 0.39844,0.11719 0.51172,0.28125l79.39844,138.68359c0.07031,0.09375 0.09375,0.21094 0.09375,0.30469" fill="rgb(0%,0%,0%)" fill-rule="nonzero" id="svg_260"/>
    </g>
   </g>
  </g>
  <g clip-path="url(#clip79)" clip-rule="nonzero" id="svg_261">
   <g clip-path="url(#clip80)" clip-rule="nonzero" id="svg_262">
    <g clip-path="url(#clip81)" clip-rule="nonzero" id="svg_263">
     <path d="m1096.42188,685.90234l157.78125,0.55079l-78.39844,-136.92579l-79.38281,136.375zm159.39062,1.14063c0,0.09375 -0.04687,0.21094 -0.09375,0.28125c-0.09375,0.1875 -0.28125,0.30078 -0.49219,0.30078l-159.8125,-0.55859c-0.21093,0 -0.39843,-0.11719 -0.51172,-0.30469c-0.09375,-0.16406 -0.09375,-0.39844 0,-0.58594l80.39063,-138.10156c0.11719,-0.18359 0.30469,-0.30078 0.51562,-0.30078c0.1875,0 0.39844,0.11719 0.48829,0.30469l79.42187,138.66015c0.04688,0.09375 0.09375,0.21094 0.09375,0.30469" fill="rgb(0%,0%,0%)" fill-rule="nonzero" id="svg_264"/>
    </g>
   </g>
  </g>
  <g clip-path="url(#clip82)" clip-rule="nonzero" id="svg_265">
   <g clip-path="url(#clip83)" clip-rule="nonzero" id="svg_266">
    <g clip-path="url(#clip84)" clip-rule="nonzero" id="svg_267">
     <path d="m1095.42188,685.3125l79.35546,-136.375l-157.78125,-0.55078l78.42579,136.92578zm80.96875,-136.95312c0,0.11718 -0.02344,0.21093 -0.09375,0.30468l-80.36719,138.10157c-0.11719,0.18359 -0.30469,0.30078 -0.51563,0.30078c-0.21093,0 -0.39843,-0.11719 -0.51172,-0.30469l-79.42187,-138.66016c-0.09375,-0.1875 -0.09375,-0.39843 0,-0.58593c0.11719,-0.1875 0.30469,-0.30079 0.51562,-0.30079l159.8125,0.5586c0.1875,0 0.39844,0.11719 0.48829,0.30469c0.07031,0.09375 0.09375,0.1875 0.09375,0.28125" fill="rgb(0%,0%,0%)" fill-rule="nonzero" id="svg_268"/>
    </g>
   </g>
  </g>
  <g clip-path="url(#clip85)" clip-rule="nonzero" id="svg_269">
   <g clip-path="url(#clip86)" clip-rule="nonzero" id="svg_270">
    <g clip-path="url(#clip87)" clip-rule="nonzero" id="svg_271">
     <path d="m936.60938,685.34375l157.80468,0.55078l-78.42187,-136.92969l-79.38281,136.37891zm159.39062,1.14063c0,0.09375 -0.02344,0.21093 -0.07031,0.28125c-0.11719,0.18359 -0.30469,0.30078 -0.51563,0.30078l-159.8125,-0.5586c-0.21093,0 -0.39843,-0.12109 -0.51172,-0.30468c-0.09375,-0.16407 -0.09375,-0.39844 0,-0.58594l80.39063,-138.10156c0.11719,-0.1875 0.30469,-0.30079 0.51562,-0.30079c0.21094,0 0.39844,0.11719 0.49219,0.30469l79.44141,138.66016c0.04687,0.09375 0.07031,0.21094 0.07031,0.30469" fill="rgb(0%,0%,0%)" fill-rule="nonzero" id="svg_272"/>
    </g>
   </g>
  </g>
  <g clip-path="url(#clip88)" clip-rule="nonzero" id="svg_273">
   <g clip-path="url(#clip89)" clip-rule="nonzero" id="svg_274">
    <g clip-path="url(#clip90)" clip-rule="nonzero" id="svg_275">
     <path d="m1015.03125,823.4375l79.37891,-136.375l-157.80469,-0.55078l78.42578,136.92578zm80.96875,-136.95312c0,0.09375 -0.02344,0.21093 -0.07031,0.28125l-80.41406,138.125c-0.09375,0.18359 -0.28125,0.30078 -0.49219,0.30078c-0.21094,0 -0.39844,-0.11719 -0.51172,-0.30469l-79.42188,-138.68359c-0.09375,-0.16407 -0.09375,-0.39844 0,-0.58594c0.11719,-0.16406 0.30469,-0.28125 0.51563,-0.27735l159.8125,0.5586c0.21094,0 0.39844,0.11719 0.51172,0.28125c0.04687,0.09375 0.07031,0.21094 0.07031,0.30469" fill="rgb(0%,0%,0%)" fill-rule="nonzero" id="svg_276"/>
    </g>
   </g>
  </g>
  <g clip-path="url(#clip91)" clip-rule="nonzero" id="svg_277">
   <g clip-path="url(#clip92)" clip-rule="nonzero" id="svg_278">
    <g clip-path="url(#clip93)" clip-rule="nonzero" id="svg_279">
     <path d="m1415.05469,963.80469l157.80469,0.55469l-78.42579,-136.90625l-79.3789,136.35156zm159.39062,1.14453c0,0.11719 -0.02343,0.21094 -0.07031,0.30078c-0.11719,0.1875 -0.30469,0.28125 -0.51562,0.28125l-159.8125,-0.55859c-0.1875,-0.00391 -0.39844,-0.09766 -0.49219,-0.28516c-0.11328,-0.1875 -0.11328,-0.39844 0.0039,-0.58203l80.36719,-138.125c0.11719,-0.16406 0.30469,-0.28125 0.51563,-0.28125c0.21093,0.00391 0.39843,0.12109 0.51172,0.28516l79.42187,138.68359c0.04688,0.09375 0.07031,0.1875 0.07031,0.28125" fill="rgb(0%,0%,0%)" fill-rule="nonzero" id="svg_280"/>
    </g>
   </g>
  </g>
  <g clip-path="url(#clip94)" clip-rule="nonzero" id="svg_281">
   <g clip-path="url(#clip95)" clip-rule="nonzero" id="svg_282">
    <g clip-path="url(#clip96)" clip-rule="nonzero" id="svg_283">
     <path d="m1416.02344,687.01953l157.80469,0.55469l-78.42579,-136.92969l-79.3789,136.375zm159.39062,1.14453c0,0.09375 -0.02343,0.21094 -0.07031,0.27735c-0.11719,0.1875 -0.30469,0.30468 -0.51562,0.30468l-159.8125,-0.5625c-0.1875,0 -0.39844,-0.11718 -0.48829,-0.30468c-0.11718,-0.16407 -0.11718,-0.39844 0,-0.58203l80.36719,-138.10157c0.11719,-0.1875 0.30469,-0.30468 0.51563,-0.30468c0.21093,0.0039 0.39843,0.12109 0.51172,0.30859l79.42187,138.66016c0.04688,0.09375 0.07031,0.21093 0.07031,0.30468" fill="rgb(0%,0%,0%)" fill-rule="nonzero" id="svg_284"/>
    </g>
   </g>
  </g>
  <g clip-path="url(#clip97)" clip-rule="nonzero" id="svg_285">
   <g clip-path="url(#clip98)" clip-rule="nonzero" id="svg_286">
    <g clip-path="url(#clip99)" clip-rule="nonzero" id="svg_287">
     <path d="m1494.44141,825.11719l79.38281,-136.375l-157.80469,-0.55469l78.42188,136.92969zm80.97265,-136.95313c0,0.09375 -0.02343,0.21094 -0.07031,0.27735l-80.39062,138.125c-0.11719,0.1875 -0.30469,0.30468 -0.51563,0.30468c-0.21094,-0.0039 -0.39844,-0.12109 -0.51172,-0.30859l-79.39844,-138.68359c-0.11718,-0.16407 -0.11718,-0.39844 0,-0.58203c0.09375,-0.16407 0.30469,-0.28125 0.49219,-0.28125l159.8125,0.5625c0.21094,0 0.39844,0.11718 0.51172,0.28125c0.04688,0.09375 0.07031,0.21093 0.07031,0.30468" fill="rgb(0%,0%,0%)" fill-rule="nonzero" id="svg_288"/>
    </g>
   </g>
  </g>
  <g clip-path="url(#clip100)" clip-rule="nonzero" id="svg_289">
   <g clip-path="url(#clip101)" clip-rule="nonzero" id="svg_290">
    <g clip-path="url(#clip102)" clip-rule="nonzero" id="svg_291">
     <path d="m1416.99219,410.23438l157.80469,0.55468l-78.42188,-136.92968l-79.38281,136.375zm159.39062,1.14453c0,0.09375 -0.02343,0.18359 -0.07031,0.27734c-0.11719,0.1875 -0.30469,0.30469 -0.51562,0.30469l-159.8125,-0.5625c-0.1875,0 -0.39844,-0.11719 -0.48829,-0.30469c-0.11718,-0.16406 -0.11718,-0.39844 0,-0.58203l80.36719,-138.10156c0.11719,-0.1875 0.30469,-0.30469 0.51563,-0.30469c0.21093,0.00391 0.39843,0.12109 0.51172,0.30859l79.42187,138.66016c0.04688,0.09375 0.07031,0.1875 0.07031,0.30469" fill="rgb(0%,0%,0%)" fill-rule="nonzero" id="svg_292"/>
    </g>
   </g>
  </g>
  <g clip-path="url(#clip103)" clip-rule="nonzero" id="svg_293">
   <g clip-path="url(#clip104)" clip-rule="nonzero" id="svg_294">
    <g clip-path="url(#clip105)" clip-rule="nonzero" id="svg_295">
     <path d="m1495.41406,548.30859l79.37891,-136.35156l-157.80469,-0.55469l78.42578,136.90625zm80.96875,-136.92968c0,0.09375 -0.02343,0.1875 -0.07031,0.27734l-80.39062,138.125c-0.11719,0.1875 -0.30469,0.28125 -0.51563,0.28125c-0.21094,-0.00391 -0.39844,-0.09766 -0.51172,-0.28516l-79.39844,-138.68359c-0.11718,-0.16406 -0.11718,-0.39844 0,-0.58203c0.09375,-0.16406 0.30469,-0.28125 0.49219,-0.28125l159.8125,0.5625c0.21094,0 0.39844,0.11719 0.51172,0.28125c0.04688,0.09375 0.07031,0.1875 0.07031,0.30469" fill="rgb(0%,0%,0%)" fill-rule="nonzero" id="svg_296"/>
    </g>
   </g>
  </g>
  <g clip-path="url(#clip106)" clip-rule="nonzero" id="svg_297">
   <g clip-path="url(#clip107)" clip-rule="nonzero" id="svg_298">
    <g clip-path="url(#clip108)" clip-rule="nonzero" id="svg_299">
     <path d="m1175.8125,547.1875l79.35547,-136.35156l-157.78125,-0.55078l78.42578,136.90234zm80.96875,-136.92969c0,0.09375 -0.04687,0.1875 -0.09375,0.28125l-80.39062,138.125c-0.09375,0.1875 -0.30469,0.27735 -0.49219,0.27735c-0.21094,0 -0.39844,-0.09375 -0.51172,-0.28125l-79.42188,-138.6836c-0.09375,-0.16406 -0.09375,-0.39843 0,-0.58593c0.11719,-0.16407 0.30469,-0.27735 0.51563,-0.27735l159.8125,0.5586c0.21094,0 0.39844,0.11718 0.48828,0.28125c0.04688,0.09375 0.09375,0.1875 0.09375,0.30468" fill="rgb(0%,0%,0%)" fill-rule="nonzero" id="svg_300"/>
    </g>
   </g>
  </g>
  <g clip-path="url(#clip109)" clip-rule="nonzero" id="svg_301">
   <g clip-path="url(#clip110)" clip-rule="nonzero" id="svg_302">
    <g clip-path="url(#clip111)" clip-rule="nonzero" id="svg_303">
     <path d="m1017,547.21875l157.78125,0.55078l-78.39844,-136.90234l-79.38281,136.35156zm159.39063,1.14063c0,0.11718 -0.02344,0.21093 -0.09375,0.30468c-0.09375,0.1875 -0.30469,0.27735 -0.49219,0.27735l-159.8125,-0.5586c-0.21094,0 -0.39844,-0.09375 -0.51172,-0.28125c-0.09375,-0.1875 -0.09375,-0.39843 0,-0.58593l80.39062,-138.125c0.11719,-0.16407 0.30469,-0.27735 0.51563,-0.27735c0.21094,0 0.39844,0.11719 0.51562,0.28125l79.39454,138.6836c0.07031,0.09375 0.09375,0.1875 0.09375,0.28125" fill="rgb(0%,0%,0%)" fill-rule="nonzero" id="svg_304"/>
    </g>
   </g>
  </g>
  <g clip-path="url(#clip112)" clip-rule="nonzero" id="svg_305">
   <g clip-path="url(#clip113)" clip-rule="nonzero" id="svg_306">
    <g clip-path="url(#clip114)" clip-rule="nonzero" id="svg_307">
     <path d="m1097.39063,409.11719l157.78125,0.55078l-78.39844,-136.92578l-79.38281,136.375zm159.39062,1.14062c0,0.09375 -0.04687,0.1875 -0.09375,0.28125c-0.09375,0.1875 -0.28125,0.30078 -0.49219,0.30078l-159.8125,-0.55859c-0.21093,0 -0.39843,-0.11719 -0.51172,-0.30469c-0.09375,-0.16406 -0.09375,-0.39843 0,-0.58593l80.39063,-138.10157c0.11719,-0.18359 0.30469,-0.30078 0.51562,-0.30078c0.1875,0 0.39844,0.11719 0.49219,0.30469l79.42188,138.66016c0.04297,0.09375 0.08984,0.1875 0.08984,0.30468" fill="rgb(0%,0%,0%)" fill-rule="nonzero" id="svg_308"/>
    </g>
   </g>
  </g>
  <g clip-path="url(#clip115)" clip-rule="nonzero" id="svg_309">
   <g clip-path="url(#clip116)" clip-rule="nonzero" id="svg_310">
    <g clip-path="url(#clip117)" clip-rule="nonzero" id="svg_311">
     <path d="m1096.39063,408.52734l79.35546,-136.375l-157.78125,-0.55078l78.42579,136.92578zm80.96875,-136.95312c0,0.09375 -0.02344,0.21094 -0.09375,0.30469l-80.36719,138.10156c-0.11719,0.18359 -0.30469,0.30078 -0.51563,0.30078c-0.21093,0 -0.39843,-0.11719 -0.51172,-0.30469l-79.42187,-138.66015c-0.09375,-0.1875 -0.09375,-0.42188 0,-0.58594c0.11719,-0.1875 0.30469,-0.30078 0.51562,-0.30078l159.8125,0.55859c0.1875,0 0.39844,0.11719 0.49219,0.30469c0.06641,0.07031 0.08985,0.1875 0.08985,0.28125" fill="rgb(0%,0%,0%)" fill-rule="nonzero" id="svg_312"/>
    </g>
   </g>
  </g>
  <g clip-path="url(#clip118)" clip-rule="nonzero" id="svg_313">
   <g clip-path="url(#clip119)" clip-rule="nonzero" id="svg_314">
    <g clip-path="url(#clip120)" clip-rule="nonzero" id="svg_315">
     <path d="m936.57813,407.96875l79.3789,-136.375l-157.80469,-0.55078l78.42579,136.92578zm80.96875,-136.95312c0,0.09375 -0.02344,0.21093 -0.09375,0.30468l-80.36719,138.09766c-0.11719,0.1875 -0.30469,0.30469 -0.51563,0.30469c-0.21093,0 -0.39453,-0.1211 -0.51172,-0.30469l-79.39843,-138.66406c-0.11719,-0.1875 -0.11719,-0.41797 0,-0.58203c0.09375,-0.1875 0.28125,-0.30469 0.49218,-0.30469l159.8125,0.5625c0.21094,0 0.39844,0.11719 0.49219,0.30469c0.06641,0.07031 0.08985,0.1875 0.08985,0.28125" fill="rgb(0%,0%,0%)" fill-rule="nonzero" id="svg_316"/>
    </g>
   </g>
  </g>
  <g clip-path="url(#clip121)" clip-rule="nonzero" id="svg_317">
   <g clip-path="url(#clip122)" clip-rule="nonzero" id="svg_318">
    <g clip-path="url(#clip123)" clip-rule="nonzero" id="svg_319">
     <path d="m937.57813,408.55469l157.80468,0.55469l-78.42187,-136.92969l-79.38281,136.375zm159.39062,1.14453c0,0.09375 -0.02344,0.1875 -0.07031,0.28125c-0.11719,0.18359 -0.30469,0.30078 -0.51563,0.30078l-159.8125,-0.55859c-0.21093,0 -0.39453,-0.1211 -0.51172,-0.30469c-0.09375,-0.16406 -0.09375,-0.39844 0,-0.58594l80.39063,-138.10156c0.11719,-0.1875 0.30469,-0.30078 0.51562,-0.30078c0.21094,0 0.39844,0.11719 0.49219,0.30469l79.44531,138.66015c0.04297,0.09375 0.06641,0.1875 0.06641,0.30469" fill="rgb(0%,0%,0%)" fill-rule="nonzero" id="svg_320"/>
    </g>
   </g>
  </g>
  <g clip-path="url(#clip124)" clip-rule="nonzero" id="svg_321">
   <g clip-path="url(#clip125)" clip-rule="nonzero" id="svg_322">
    <g clip-path="url(#clip126)" clip-rule="nonzero" id="svg_323">
     <path d="m1016,546.62891l79.37891,-136.35157l-157.80469,-0.55078l78.42578,136.90235zm80.96875,-136.92969c0,0.09375 -0.02344,0.1875 -0.07031,0.28125l-80.41406,138.125c-0.09375,0.18359 -0.28125,0.27734 -0.49219,0.27734c-0.21094,0 -0.39844,-0.09375 -0.51172,-0.28125l-79.42188,-138.68359c-0.09375,-0.16406 -0.09375,-0.39844 0,-0.58594c0.11719,-0.16406 0.30469,-0.28125 0.51563,-0.27734l159.8125,0.55859c0.21094,0 0.39844,0.11719 0.51562,0.28125c0.04297,0.09375 0.06641,0.1875 0.06641,0.30469" fill="rgb(0%,0%,0%)" fill-rule="nonzero" id="svg_324"/>
    </g>
   </g>
  </g>
  <g clip-path="url(#clip127)" clip-rule="nonzero" id="svg_325">
   <g clip-path="url(#clip128)" clip-rule="nonzero" id="svg_326">
    <g clip-path="url(#clip129)" clip-rule="nonzero" id="svg_327">
     <path d="m1417.96094,133.42578l157.80469,0.55469l-78.42188,-136.90625l-79.38281,136.35156zm159.39062,1.14453c0,0.11719 -0.02343,0.21094 -0.07031,0.30078c-0.11719,0.1875 -0.30469,0.28125 -0.51562,0.28125l-159.8125,-0.5625c-0.1875,0 -0.39454,-0.09375 -0.48829,-0.28125c-0.11718,-0.1875 -0.11718,-0.39843 0,-0.58203l80.36719,-138.125c0.11719,-0.1875 0.30469,-0.28125 0.51563,-0.28125c0.21093,0.00391 0.39843,0.09766 0.51562,0.28516l79.42188,138.68359c0.04297,0.09375 0.0664,0.1875 0.0664,0.28125" fill="rgb(0%,0%,0%)" fill-rule="nonzero" id="svg_328"/>
    </g>
   </g>
  </g>
  <g clip-path="url(#clip130)" clip-rule="nonzero" id="svg_329">
   <g clip-path="url(#clip131)" clip-rule="nonzero" id="svg_330">
    <g clip-path="url(#clip132)" clip-rule="nonzero" id="svg_331">
     <path d="m1496.38281,271.52344l79.37891,-136.375l-157.80469,-0.55469l78.42578,136.92969zm80.96875,-136.95313c0,0.11719 -0.02343,0.21094 -0.07031,0.30078l-80.39062,138.125c-0.11719,0.16407 -0.30469,0.28125 -0.51563,0.28125c-0.21094,-0.0039 -0.39844,-0.12109 -0.51172,-0.28515l-79.39844,-138.6836c-0.11718,-0.1875 -0.11718,-0.39843 0,-0.58203c0.09375,-0.1875 0.30469,-0.30468 0.49219,-0.30468l159.8125,0.5625c0.21094,0 0.39844,0.11718 0.51563,0.30468c0.04297,0.09375 0.0664,0.1875 0.0664,0.28125" fill="rgb(0%,0%,0%)" fill-rule="nonzero" id="svg_332"/>
    </g>
   </g>
  </g>
  <g clip-path="url(#clip133)" clip-rule="nonzero" id="svg_333">
   <g clip-path="url(#clip134)" clip-rule="nonzero" id="svg_334">
    <g clip-path="url(#clip135)" clip-rule="nonzero" id="svg_335">
     <path d="m1176.78125,270.40234l79.35547,-136.375l-157.78125,-0.55078l78.42578,136.92578zm80.96875,-136.95312c0,0.11719 -0.04687,0.21094 -0.09375,0.30469l-80.39062,138.125c-0.09375,0.16406 -0.30469,0.27734 -0.49219,0.27734c-0.21094,0 -0.39453,-0.11719 -0.51172,-0.28125l-79.42188,-138.68359c-0.09375,-0.1875 -0.09375,-0.39844 0,-0.58594c0.11719,-0.1875 0.30469,-0.30078 0.51563,-0.30078l159.8125,0.55859c0.21094,0 0.39844,0.11719 0.49219,0.30469c0.04297,0.09375 0.08984,0.1875 0.08984,0.28125" fill="rgb(0%,0%,0%)" fill-rule="nonzero" id="svg_336"/>
    </g>
   </g>
  </g>
  <g clip-path="url(#clip136)" clip-rule="nonzero" id="svg_337">
   <g clip-path="url(#clip137)" clip-rule="nonzero" id="svg_338">
    <g clip-path="url(#clip138)" clip-rule="nonzero" id="svg_339">
     <path d="m1017.97266,270.43359l157.77734,0.55079l-78.39844,-136.92579l-79.3789,136.375zm159.38672,1.14063c0,0.09375 -0.02344,0.21094 -0.09375,0.30469c-0.09375,0.16406 -0.30469,0.27734 -0.49219,0.27734l-159.8125,-0.55859c-0.21094,0 -0.39453,-0.11719 -0.51172,-0.28125c-0.09375,-0.1875 -0.09375,-0.42188 0,-0.58594l80.39062,-138.125c0.11719,-0.1875 0.30469,-0.30078 0.51563,-0.30078c0.21094,0 0.39844,0.11719 0.51562,0.30469l79.39844,138.68359c0.06641,0.07031 0.08985,0.1875 0.08985,0.28125" fill="rgb(0%,0%,0%)" fill-rule="nonzero" id="svg_340"/>
    </g>
   </g>
  </g>
  <g clip-path="url(#clip139)" clip-rule="nonzero" id="svg_341">
   <g clip-path="url(#clip140)" clip-rule="nonzero" id="svg_342">
    <g clip-path="url(#clip141)" clip-rule="nonzero" id="svg_343">
     <path d="m858.16016,269.87109l157.80078,0.55469l-78.42188,-136.92969l-79.3789,136.375zm159.38672,1.14454c0,0.09375 -0.02344,0.21093 -0.09375,0.30468c-0.09375,0.16016 -0.28125,0.27735 -0.49219,0.27735l-159.8125,-0.5586c-0.21094,-0.0039 -0.39453,-0.12109 -0.48828,-0.28515c-0.11719,-0.1875 -0.11719,-0.41797 0,-0.58203l80.36718,-138.125c0.11719,-0.1875 0.30469,-0.30469 0.51563,-0.30079c0.21094,0 0.39844,0.11719 0.51562,0.30469l79.39844,138.6836c0.06641,0.07031 0.08985,0.1875 0.08985,0.28125" fill="rgb(0%,0%,0%)" fill-rule="nonzero" id="svg_344"/>
    </g>
   </g>
  </g>
  <g clip-path="url(#clip142)" clip-rule="nonzero" id="svg_345">
   <g clip-path="url(#clip143)" clip-rule="nonzero" id="svg_346">
    <g clip-path="url(#clip144)" clip-rule="nonzero" id="svg_347">
     <path d="m1098.36328,132.30859l157.77735,0.55079l-78.39844,-136.90235l-79.37891,136.35156zm159.38672,1.14063c0,0.11719 -0.04687,0.21094 -0.09375,0.30469c-0.09375,0.1875 -0.28125,0.27734 -0.49219,0.27734l-159.8125,-0.55859c-0.21093,0 -0.39453,-0.09375 -0.51172,-0.28125c-0.09375,-0.1875 -0.09375,-0.39844 0,-0.58594l80.39063,-138.125c0.11719,-0.1836 0.30469,-0.27735 0.51562,-0.27735c0.1875,0 0.39844,0.09375 0.49219,0.28125l79.42188,138.6836c0.04297,0.09375 0.08984,0.1875 0.08984,0.28125" fill="rgb(0%,0%,0%)" fill-rule="nonzero" id="svg_348"/>
    </g>
   </g>
  </g>
 </g>
</svg>