<?xml version="1.0" encoding="UTF-8"?>
<svg xmlns="http://www.w3.org/2000/svg" xmlns:xlink="http://www.w3.org/1999/xlink" width="900pt" height="899.99999pt" viewBox="0 0 900 899.99999" version="1.2">
<defs>
<clipPath id="clip1">
  <path d="M 36.625 114.132812 L 863.125 114.132812 L 863.125 786.132812 L 36.625 786.132812 Z M 36.625 114.132812 "/>
</clipPath>
</defs>
<g id="surface1">
<g clip-path="url(#clip1)" clip-rule="nonzero">
<path style=" stroke:none;fill-rule:nonzero;fill:rgb(94.509888%,73.329163%,48.629761%);fill-opacity:1;" d="M 449.875 506.992188 C 448.691406 506.992188 447.507812 507.023438 446.324219 507.082031 C 445.144531 507.136719 443.960938 507.226562 442.785156 507.339844 C 441.605469 507.457031 440.433594 507.601562 439.261719 507.777344 C 438.089844 507.949219 436.925781 508.152344 435.765625 508.382812 C 434.605469 508.613281 433.449219 508.875 432.300781 509.160156 C 431.152344 509.449219 430.011719 509.765625 428.878906 510.109375 C 427.746094 510.453125 426.625 510.824219 425.511719 511.222656 C 424.394531 511.621094 423.292969 512.046875 422.199219 512.5 C 421.105469 512.957031 420.023438 513.433594 418.953125 513.941406 C 417.882812 514.449219 416.828125 514.980469 415.78125 515.539062 C 414.738281 516.097656 413.710938 516.679688 412.695312 517.289062 C 411.679688 517.898438 410.679688 518.53125 409.695312 519.191406 C 408.710938 519.847656 407.742188 520.527344 406.792969 521.234375 C 405.84375 521.941406 404.910156 522.667969 403.996094 523.421875 C 403.078125 524.171875 402.183594 524.945312 401.308594 525.738281 C 400.429688 526.535156 399.574219 527.351562 398.738281 528.191406 C 397.898438 529.027344 397.082031 529.882812 396.289062 530.761719 C 395.492188 531.640625 394.722656 532.535156 393.96875 533.453125 C 393.21875 534.367188 392.492188 535.300781 391.785156 536.25 C 391.082031 537.203125 390.398438 538.171875 389.742188 539.15625 C 389.085938 540.140625 388.453125 541.140625 387.84375 542.15625 C 387.234375 543.171875 386.652344 544.203125 386.09375 545.246094 C 385.535156 546.292969 385.003906 547.351562 384.496094 548.421875 C 383.992188 549.492188 383.511719 550.574219 383.058594 551.667969 C 382.605469 552.761719 382.179688 553.867188 381.78125 554.980469 C 381.382812 556.097656 381.011719 557.222656 380.667969 558.355469 C 380.324219 559.488281 380.007812 560.628906 379.722656 561.777344 C 379.433594 562.925781 379.175781 564.082031 378.945312 565.242188 C 378.714844 566.40625 378.511719 567.570312 378.335938 568.742188 C 378.164062 569.914062 378.019531 571.089844 377.902344 572.269531 C 377.785156 573.449219 377.699219 574.628906 377.640625 575.8125 C 377.582031 576.996094 377.554688 578.179688 377.554688 579.363281 C 377.554688 580.546875 377.582031 581.730469 377.640625 582.914062 C 377.699219 584.097656 377.785156 585.277344 377.902344 586.457031 C 378.019531 587.632812 378.164062 588.808594 378.335938 589.980469 C 378.511719 591.152344 378.714844 592.320312 378.945312 593.480469 C 379.175781 594.640625 379.433594 595.796875 379.722656 596.945312 C 380.007812 598.09375 380.324219 599.238281 380.667969 600.371094 C 381.011719 601.503906 381.382812 602.628906 381.78125 603.742188 C 382.179688 604.859375 382.605469 605.960938 383.058594 607.058594 C 383.511719 608.152344 383.992188 609.234375 384.496094 610.304688 C 385.003906 611.375 385.535156 612.433594 386.09375 613.476562 C 386.652344 614.519531 387.234375 615.550781 387.84375 616.566406 C 388.453125 617.582031 389.085938 618.582031 389.742188 619.570312 C 390.398438 620.554688 391.082031 621.519531 391.785156 622.472656 C 392.492188 623.425781 393.21875 624.355469 393.96875 625.273438 C 394.722656 626.1875 395.492188 627.085938 396.289062 627.960938 C 397.082031 628.839844 397.898438 629.699219 398.738281 630.535156 C 399.574219 631.371094 400.429688 632.1875 401.308594 632.984375 C 402.183594 633.78125 403.078125 634.554688 403.996094 635.304688 C 404.910156 636.054688 405.84375 636.785156 406.792969 637.488281 C 407.742188 638.195312 408.710938 638.878906 409.695312 639.535156 C 410.679688 640.191406 411.679688 640.828125 412.695312 641.433594 C 413.710938 642.042969 414.738281 642.628906 415.78125 643.1875 C 416.828125 643.746094 417.882812 644.277344 418.953125 644.78125 C 420.023438 645.289062 421.105469 645.769531 422.199219 646.222656 C 423.292969 646.675781 424.394531 647.101562 425.511719 647.5 C 426.625 647.898438 427.746094 648.273438 428.878906 648.617188 C 430.011719 648.960938 431.152344 649.273438 432.300781 649.5625 C 433.449219 649.851562 434.605469 650.109375 435.765625 650.339844 C 436.925781 650.570312 438.089844 650.773438 439.261719 650.949219 C 440.433594 651.121094 441.605469 651.265625 442.785156 651.382812 C 443.960938 651.5 445.144531 651.585938 446.324219 651.644531 C 447.507812 651.703125 448.691406 651.730469 449.875 651.730469 C 451.058594 651.730469 452.238281 651.703125 453.421875 651.644531 C 454.605469 651.585938 455.785156 651.5 456.960938 651.382812 C 458.140625 651.265625 459.3125 651.121094 460.484375 650.949219 C 461.65625 650.773438 462.820312 650.570312 463.980469 650.339844 C 465.144531 650.109375 466.296875 649.851562 467.445312 649.5625 C 468.59375 649.273438 469.734375 648.960938 470.867188 648.617188 C 472 648.273438 473.121094 647.898438 474.238281 647.5 C 475.351562 647.101562 476.453125 646.675781 477.546875 646.222656 C 478.640625 645.769531 479.722656 645.289062 480.792969 644.78125 C 481.863281 644.277344 482.921875 643.746094 483.964844 643.1875 C 485.007812 642.628906 486.039062 642.042969 487.050781 641.433594 C 488.066406 640.828125 489.066406 640.191406 490.050781 639.535156 C 491.035156 638.878906 492.003906 638.195312 492.953125 637.488281 C 493.902344 636.785156 494.835938 636.054688 495.75 635.304688 C 496.667969 634.554688 497.5625 633.78125 498.441406 632.984375 C 499.316406 632.1875 500.171875 631.371094 501.011719 630.535156 C 501.847656 629.699219 502.664062 628.839844 503.457031 627.960938 C 504.253906 627.085938 505.027344 626.1875 505.777344 625.273438 C 506.527344 624.355469 507.253906 623.425781 507.960938 622.472656 C 508.664062 621.519531 509.347656 620.554688 510.003906 619.570312 C 510.660156 618.582031 511.292969 617.582031 511.902344 616.566406 C 512.511719 615.550781 513.09375 614.519531 513.652344 613.476562 C 514.210938 612.433594 514.742188 611.375 515.25 610.304688 C 515.753906 609.234375 516.234375 608.152344 516.6875 607.058594 C 517.140625 605.960938 517.566406 604.859375 517.964844 603.742188 C 518.363281 602.628906 518.734375 601.503906 519.078125 600.371094 C 519.421875 599.238281 519.738281 598.09375 520.023438 596.945312 C 520.3125 595.796875 520.570312 594.640625 520.800781 593.480469 C 521.035156 592.320312 521.234375 591.152344 521.410156 589.980469 C 521.582031 588.808594 521.726562 587.632812 521.84375 586.457031 C 521.960938 585.277344 522.046875 584.097656 522.105469 582.914062 C 522.164062 581.730469 522.191406 580.546875 522.191406 579.363281 C 522.191406 578.179688 522.160156 576.996094 522.101562 575.8125 C 522.042969 574.628906 521.953125 573.449219 521.835938 572.269531 C 521.71875 571.09375 521.574219 569.917969 521.398438 568.746094 C 521.222656 567.578125 521.019531 566.410156 520.789062 565.25 C 520.558594 564.089844 520.296875 562.933594 520.007812 561.785156 C 519.71875 560.636719 519.402344 559.496094 519.058594 558.363281 C 518.714844 557.230469 518.34375 556.105469 517.945312 554.992188 C 517.546875 553.878906 517.117188 552.773438 516.664062 551.679688 C 516.210938 550.585938 515.730469 549.503906 515.226562 548.433594 C 514.71875 547.363281 514.1875 546.308594 513.628906 545.265625 C 513.070312 544.21875 512.488281 543.191406 511.878906 542.175781 C 511.269531 541.160156 510.636719 540.160156 509.980469 539.175781 C 509.320312 538.191406 508.640625 537.222656 507.933594 536.273438 C 507.230469 535.320312 506.503906 534.390625 505.75 533.472656 C 505 532.558594 504.226562 531.664062 503.433594 530.785156 C 502.640625 529.90625 501.824219 529.050781 500.988281 528.214844 C 500.148438 527.375 499.292969 526.558594 498.417969 525.765625 C 497.539062 524.96875 496.644531 524.195312 495.730469 523.445312 C 494.816406 522.695312 493.882812 521.964844 492.933594 521.261719 C 491.984375 520.554688 491.015625 519.871094 490.03125 519.214844 C 489.046875 518.554688 488.050781 517.921875 487.035156 517.3125 C 486.019531 516.703125 484.992188 516.121094 483.949219 515.5625 C 482.90625 515.003906 481.847656 514.472656 480.777344 513.964844 C 479.710938 513.457031 478.628906 512.976562 477.535156 512.523438 C 476.441406 512.070312 475.339844 511.644531 474.226562 511.242188 C 473.113281 510.84375 471.988281 510.472656 470.855469 510.128906 C 469.726562 509.78125 468.585938 509.464844 467.4375 509.179688 C 466.289062 508.890625 465.136719 508.628906 463.976562 508.398438 C 462.816406 508.164062 461.652344 507.960938 460.480469 507.785156 C 459.308594 507.613281 458.136719 507.464844 456.960938 507.347656 C 455.78125 507.230469 454.601562 507.144531 453.421875 507.085938 C 452.238281 507.023438 451.054688 506.996094 449.875 506.992188 Z M 449.875 631.054688 C 448.179688 631.054688 446.492188 630.972656 444.808594 630.804688 C 443.125 630.640625 441.453125 630.390625 439.796875 630.0625 C 438.136719 629.730469 436.496094 629.320312 434.878906 628.828125 C 433.257812 628.335938 431.667969 627.765625 430.105469 627.121094 C 428.542969 626.472656 427.015625 625.75 425.523438 624.949219 C 424.03125 624.152344 422.582031 623.285156 421.175781 622.34375 C 419.769531 621.402344 418.410156 620.394531 417.101562 619.320312 C 415.796875 618.246094 414.542969 617.109375 413.347656 615.914062 C 412.152344 614.71875 411.015625 613.464844 409.941406 612.15625 C 408.871094 610.847656 407.863281 609.488281 406.921875 608.082031 C 405.984375 606.671875 405.113281 605.222656 404.316406 603.730469 C 403.519531 602.238281 402.796875 600.707031 402.148438 599.144531 C 401.5 597.578125 400.933594 595.988281 400.441406 594.367188 C 399.949219 592.746094 399.539062 591.105469 399.210938 589.445312 C 398.878906 587.785156 398.632812 586.113281 398.464844 584.429688 C 398.300781 582.742188 398.21875 581.054688 398.21875 579.363281 C 398.21875 577.667969 398.300781 575.980469 398.464844 574.296875 C 398.632812 572.609375 398.878906 570.9375 399.210938 569.277344 C 399.539062 567.617188 399.949219 565.976562 400.441406 564.355469 C 400.933594 562.738281 401.5 561.144531 402.148438 559.582031 C 402.796875 558.015625 403.519531 556.488281 404.316406 554.996094 C 405.113281 553.5 405.984375 552.050781 406.921875 550.644531 C 407.863281 549.234375 408.871094 547.878906 409.941406 546.570312 C 411.015625 545.261719 412.152344 544.007812 413.347656 542.808594 C 414.542969 541.613281 415.796875 540.476562 417.101562 539.402344 C 418.410156 538.328125 419.769531 537.324219 421.175781 536.382812 C 422.582031 535.441406 424.03125 534.570312 425.523438 533.773438 C 427.015625 532.976562 428.542969 532.253906 430.105469 531.605469 C 431.667969 530.957031 433.257812 530.386719 434.878906 529.894531 C 436.496094 529.40625 438.136719 528.992188 439.796875 528.664062 C 441.453125 528.332031 443.125 528.085938 444.808594 527.917969 C 446.492188 527.753906 448.179688 527.671875 449.875 527.671875 C 451.566406 527.671875 453.253906 527.753906 454.9375 527.917969 C 456.621094 528.085938 458.292969 528.332031 459.949219 528.664062 C 461.609375 528.992188 463.25 529.40625 464.867188 529.894531 C 466.488281 530.386719 468.078125 530.957031 469.640625 531.605469 C 471.203125 532.253906 472.730469 532.976562 474.222656 533.773438 C 475.714844 534.570312 477.164062 535.441406 478.570312 536.382812 C 479.980469 537.324219 481.335938 538.328125 482.644531 539.402344 C 483.953125 540.476562 485.203125 541.613281 486.398438 542.808594 C 487.597656 544.007812 488.730469 545.261719 489.804688 546.570312 C 490.878906 547.878906 491.882812 549.234375 492.824219 550.644531 C 493.765625 552.050781 494.632812 553.5 495.429688 554.996094 C 496.226562 556.488281 496.949219 558.015625 497.597656 559.582031 C 498.246094 561.144531 498.8125 562.738281 499.304688 564.355469 C 499.796875 565.976562 500.207031 567.617188 500.535156 569.277344 C 500.867188 570.9375 501.113281 572.609375 501.28125 574.296875 C 501.445312 575.980469 501.53125 577.667969 501.53125 579.363281 C 501.527344 581.054688 501.441406 582.742188 501.277344 584.425781 C 501.109375 586.109375 500.859375 587.78125 500.527344 589.441406 C 500.195312 591.101562 499.785156 592.742188 499.292969 594.359375 C 498.800781 595.980469 498.230469 597.570312 497.582031 599.136719 C 496.933594 600.699219 496.210938 602.226562 495.414062 603.71875 C 494.613281 605.210938 493.746094 606.660156 492.804688 608.066406 C 491.867188 609.472656 490.859375 610.832031 489.785156 612.140625 C 488.714844 613.449219 487.578125 614.699219 486.382812 615.898438 C 485.1875 617.09375 483.933594 618.230469 482.628906 619.304688 C 481.320312 620.375 479.964844 621.382812 478.558594 622.324219 C 477.152344 623.265625 475.703125 624.136719 474.210938 624.933594 C 472.722656 625.730469 471.195312 626.457031 469.632812 627.105469 C 468.070312 627.753906 466.480469 628.324219 464.863281 628.816406 C 463.242188 629.308594 461.605469 629.71875 459.945312 630.050781 C 458.289062 630.382812 456.617188 630.632812 454.933594 630.800781 C 453.25 630.96875 451.566406 631.050781 449.875 631.054688 Z M 584.726562 655.824219 C 591.027344 644.726562 595.875 633.023438 599.261719 620.714844 L 646.167969 620.714844 C 646.84375 620.714844 647.515625 620.648438 648.183594 620.515625 C 648.847656 620.386719 649.492188 620.1875 650.121094 619.929688 C 650.746094 619.667969 651.34375 619.351562 651.90625 618.972656 C 652.46875 618.597656 652.992188 618.167969 653.472656 617.6875 C 653.953125 617.207031 654.378906 616.6875 654.757812 616.121094 C 655.132812 615.558594 655.453125 614.960938 655.710938 614.332031 C 655.972656 613.707031 656.167969 613.058594 656.300781 612.394531 C 656.433594 611.730469 656.5 611.054688 656.5 610.378906 L 656.5 548.347656 C 656.5 547.667969 656.433594 546.996094 656.300781 546.328125 C 656.167969 545.664062 655.972656 545.019531 655.710938 544.390625 C 655.453125 543.761719 655.132812 543.167969 654.757812 542.601562 C 654.378906 542.039062 653.953125 541.515625 653.472656 541.035156 C 652.992188 540.554688 652.46875 540.128906 651.90625 539.75 C 651.34375 539.375 650.746094 539.054688 650.121094 538.796875 C 649.492188 538.535156 648.847656 538.339844 648.183594 538.207031 C 647.515625 538.074219 646.84375 538.007812 646.167969 538.007812 L 599.261719 538.007812 C 595.875 525.703125 591.03125 514 584.726562 502.898438 L 617.898438 469.707031 C 618.378906 469.226562 618.804688 468.707031 619.183594 468.140625 C 619.558594 467.578125 619.878906 466.980469 620.136719 466.351562 C 620.398438 465.726562 620.59375 465.078125 620.726562 464.414062 C 620.859375 463.746094 620.925781 463.074219 620.925781 462.398438 C 620.925781 461.71875 620.859375 461.046875 620.726562 460.378906 C 620.59375 459.714844 620.398438 459.066406 620.136719 458.441406 C 619.878906 457.8125 619.558594 457.21875 619.183594 456.652344 C 618.804688 456.089844 618.378906 455.566406 617.898438 455.085938 L 574.066406 411.222656 C 573.585938 410.742188 573.066406 410.3125 572.5 409.9375 C 571.9375 409.558594 571.339844 409.242188 570.714844 408.980469 C 570.085938 408.722656 569.441406 408.523438 568.777344 408.394531 C 568.109375 408.261719 567.4375 408.195312 566.761719 408.195312 C 566.082031 408.195312 565.410156 408.261719 564.746094 408.394531 C 564.078125 408.523438 563.433594 408.722656 562.804688 408.980469 C 562.179688 409.242188 561.585938 409.558594 561.019531 409.9375 C 560.457031 410.3125 559.933594 410.742188 559.453125 411.222656 L 526.285156 444.417969 C 515.195312 438.109375 503.496094 433.257812 491.199219 429.867188 L 491.199219 382.929688 C 491.199219 382.253906 491.132812 381.582031 491 380.914062 C 490.867188 380.25 490.671875 379.601562 490.410156 378.976562 C 490.152344 378.347656 489.835938 377.753906 489.457031 377.1875 C 489.082031 376.625 488.652344 376.101562 488.171875 375.621094 C 487.691406 375.140625 487.171875 374.710938 486.605469 374.335938 C 486.042969 373.957031 485.449219 373.640625 484.820312 373.378906 C 484.195312 373.121094 483.546875 372.925781 482.882812 372.792969 C 482.21875 372.660156 481.546875 372.59375 480.867188 372.59375 L 418.878906 372.59375 C 418.203125 372.59375 417.53125 372.660156 416.863281 372.792969 C 416.199219 372.925781 415.554688 373.121094 414.925781 373.378906 C 414.300781 373.640625 413.703125 373.957031 413.140625 374.335938 C 412.574219 374.710938 412.054688 375.140625 411.574219 375.621094 C 411.09375 376.101562 410.667969 376.625 410.289062 377.1875 C 409.914062 377.753906 409.59375 378.347656 409.335938 378.976562 C 409.074219 379.601562 408.878906 380.25 408.746094 380.914062 C 408.613281 381.582031 408.546875 382.253906 408.546875 382.929688 L 408.546875 429.867188 C 396.25 433.257812 384.554688 438.105469 373.464844 444.414062 L 340.296875 411.21875 C 339.816406 410.738281 339.292969 410.3125 338.730469 409.933594 C 338.164062 409.554688 337.570312 409.238281 336.941406 408.976562 C 336.316406 408.71875 335.671875 408.523438 335.003906 408.390625 C 334.339844 408.257812 333.667969 408.191406 332.988281 408.191406 C 332.3125 408.191406 331.640625 408.257812 330.972656 408.390625 C 330.308594 408.523438 329.664062 408.71875 329.035156 408.976562 C 328.410156 409.238281 327.8125 409.554688 327.25 409.933594 C 326.683594 410.3125 326.164062 410.738281 325.683594 411.21875 L 281.851562 455.082031 C 281.371094 455.5625 280.941406 456.085938 280.566406 456.648438 C 280.1875 457.214844 279.871094 457.808594 279.613281 458.4375 C 279.351562 459.0625 279.15625 459.710938 279.023438 460.375 C 278.890625 461.042969 278.824219 461.714844 278.824219 462.394531 C 278.824219 463.074219 278.890625 463.746094 279.023438 464.410156 C 279.15625 465.078125 279.351562 465.722656 279.613281 466.351562 C 279.871094 466.976562 280.1875 467.574219 280.566406 468.136719 C 280.941406 468.703125 281.371094 469.222656 281.851562 469.703125 L 315.023438 502.898438 C 308.71875 513.996094 303.871094 525.699219 300.484375 538.007812 L 253.578125 538.007812 C 252.902344 538.007812 252.230469 538.074219 251.5625 538.207031 C 250.898438 538.339844 250.253906 538.535156 249.625 538.796875 C 249 539.054688 248.402344 539.375 247.839844 539.75 C 247.277344 540.128906 246.753906 540.554688 246.273438 541.035156 C 245.792969 541.515625 245.367188 542.039062 244.988281 542.601562 C 244.613281 543.167969 244.292969 543.761719 244.035156 544.390625 C 243.777344 545.019531 243.578125 545.664062 243.445312 546.328125 C 243.316406 546.996094 243.25 547.667969 243.25 548.347656 L 243.25 610.378906 C 243.25 611.054688 243.316406 611.730469 243.445312 612.394531 C 243.578125 613.058594 243.773438 613.707031 244.035156 614.332031 C 244.292969 614.960938 244.613281 615.558594 244.988281 616.121094 C 245.367188 616.6875 245.792969 617.207031 246.273438 617.6875 C 246.753906 618.167969 247.277344 618.597656 247.839844 618.972656 C 248.402344 619.351562 249 619.667969 249.625 619.929688 C 250.253906 620.1875 250.898438 620.386719 251.5625 620.515625 C 252.230469 620.648438 252.902344 620.714844 253.578125 620.714844 L 300.484375 620.714844 C 303.871094 633.023438 308.714844 644.726562 315.019531 655.824219 L 281.847656 689.015625 C 281.367188 689.496094 280.941406 690.019531 280.5625 690.582031 C 280.1875 691.148438 279.867188 691.746094 279.609375 692.371094 C 279.347656 693 279.152344 693.644531 279.019531 694.3125 C 278.886719 694.976562 278.820312 695.648438 278.820312 696.328125 C 278.820312 697.007812 278.886719 697.679688 279.019531 698.34375 C 279.152344 699.011719 279.347656 699.65625 279.609375 700.285156 C 279.867188 700.910156 280.1875 701.507812 280.5625 702.070312 C 280.941406 702.636719 281.367188 703.160156 281.847656 703.640625 L 325.679688 747.5 C 326.160156 747.980469 326.683594 748.410156 327.246094 748.789062 C 327.808594 749.164062 328.40625 749.484375 329.03125 749.742188 C 329.660156 750.003906 330.304688 750.199219 330.96875 750.332031 C 331.636719 750.464844 332.308594 750.53125 332.984375 750.53125 C 333.664062 750.53125 334.335938 750.464844 335 750.332031 C 335.667969 750.199219 336.3125 750.003906 336.941406 749.742188 C 337.566406 749.484375 338.164062 749.164062 338.726562 748.789062 C 339.289062 748.410156 339.8125 747.980469 340.292969 747.5 L 373.460938 714.308594 C 384.554688 720.617188 396.25 725.464844 408.546875 728.855469 L 408.546875 775.792969 C 408.546875 776.472656 408.613281 777.144531 408.746094 777.808594 C 408.878906 778.476562 409.074219 779.121094 409.335938 779.75 C 409.59375 780.375 409.914062 780.972656 410.289062 781.535156 C 410.667969 782.101562 411.09375 782.625 411.574219 783.101562 C 412.054688 783.582031 412.574219 784.011719 413.140625 784.390625 C 413.703125 784.765625 414.300781 785.085938 414.925781 785.34375 C 415.550781 785.605469 416.199219 785.800781 416.863281 785.933594 C 417.53125 786.066406 418.203125 786.132812 418.878906 786.132812 L 480.867188 786.132812 C 481.546875 786.132812 482.21875 786.066406 482.882812 785.933594 C 483.546875 785.800781 484.195312 785.605469 484.820312 785.34375 C 485.449219 785.085938 486.042969 784.765625 486.605469 784.390625 C 487.171875 784.011719 487.691406 783.582031 488.171875 783.101562 C 488.652344 782.625 489.082031 782.101562 489.457031 781.535156 C 489.835938 780.972656 490.152344 780.375 490.410156 779.75 C 490.671875 779.121094 490.867188 778.476562 491 777.808594 C 491.132812 777.144531 491.199219 776.472656 491.199219 775.792969 L 491.199219 728.855469 C 503.496094 725.464844 515.191406 720.617188 526.28125 714.3125 L 559.453125 747.503906 C 559.929688 747.984375 560.453125 748.414062 561.015625 748.789062 C 561.582031 749.167969 562.175781 749.488281 562.804688 749.746094 C 563.429688 750.007812 564.078125 750.203125 564.742188 750.335938 C 565.40625 750.46875 566.078125 750.535156 566.757812 750.535156 C 567.4375 750.535156 568.109375 750.46875 568.773438 750.335938 C 569.4375 750.203125 570.085938 750.007812 570.710938 749.746094 C 571.339844 749.488281 571.933594 749.167969 572.496094 748.789062 C 573.0625 748.414062 573.582031 747.984375 574.0625 747.503906 L 617.894531 703.640625 C 618.375 703.160156 618.804688 702.640625 619.179688 702.074219 C 619.558594 701.511719 619.875 700.914062 620.136719 700.289062 C 620.394531 699.660156 620.589844 699.015625 620.722656 698.347656 C 620.855469 697.683594 620.921875 697.011719 620.921875 696.332031 C 620.921875 695.652344 620.855469 694.980469 620.722656 694.3125 C 620.589844 693.648438 620.394531 693 620.136719 692.375 C 619.875 691.746094 619.558594 691.152344 619.179688 690.585938 C 618.804688 690.023438 618.375 689.5 617.894531 689.019531 Z M 566.757812 725.570312 L 535.171875 693.964844 C 534.761719 693.550781 534.3125 693.175781 533.835938 692.835938 C 533.359375 692.5 532.859375 692.203125 532.332031 691.949219 C 531.804688 691.699219 531.257812 691.492188 530.695312 691.332031 C 530.132812 691.171875 529.5625 691.058594 528.980469 690.996094 C 528.398438 690.933594 527.816406 690.917969 527.234375 690.957031 C 526.648438 690.992188 526.074219 691.078125 525.503906 691.210938 C 524.933594 691.34375 524.378906 691.523438 523.839844 691.753906 C 523.304688 691.980469 522.789062 692.253906 522.296875 692.570312 C 515.621094 696.859375 508.617188 700.527344 501.285156 703.566406 C 493.957031 706.605469 486.414062 708.96875 478.664062 710.660156 C 478.089844 710.785156 477.535156 710.957031 476.992188 711.175781 C 476.449219 711.398438 475.929688 711.660156 475.433594 711.96875 C 474.933594 712.277344 474.464844 712.625 474.027344 713.011719 C 473.589844 713.398438 473.1875 713.820312 472.820312 714.277344 C 472.453125 714.734375 472.128906 715.21875 471.84375 715.730469 C 471.558594 716.238281 471.316406 716.773438 471.125 717.324219 C 470.929688 717.875 470.78125 718.441406 470.683594 719.019531 C 470.585938 719.59375 470.535156 720.175781 470.535156 720.761719 L 470.535156 765.453125 L 429.210938 765.453125 L 429.210938 720.757812 C 429.210938 720.175781 429.160156 719.59375 429.0625 719.015625 C 428.964844 718.4375 428.816406 717.875 428.625 717.320312 C 428.429688 716.769531 428.1875 716.238281 427.90625 715.726562 C 427.621094 715.214844 427.292969 714.730469 426.925781 714.277344 C 426.558594 713.820312 426.15625 713.398438 425.71875 713.011719 C 425.28125 712.621094 424.8125 712.273438 424.316406 711.96875 C 423.816406 711.660156 423.296875 711.394531 422.753906 711.175781 C 422.210938 710.957031 421.65625 710.785156 421.085938 710.660156 C 413.332031 708.96875 405.792969 706.601562 398.460938 703.5625 C 391.132812 700.523438 384.132812 696.859375 377.457031 692.570312 C 376.964844 692.253906 376.449219 691.980469 375.910156 691.75 C 375.371094 691.523438 374.816406 691.34375 374.246094 691.207031 C 373.679688 691.074219 373.101562 690.988281 372.519531 690.953125 C 371.933594 690.914062 371.351562 690.929688 370.769531 690.992188 C 370.1875 691.054688 369.617188 691.167969 369.054688 691.324219 C 368.492188 691.484375 367.945312 691.691406 367.417969 691.945312 C 366.890625 692.199219 366.386719 692.492188 365.910156 692.832031 C 365.433594 693.171875 364.988281 693.546875 364.574219 693.960938 L 332.988281 725.566406 L 303.769531 696.324219 L 335.351562 664.71875 C 335.765625 664.304688 336.140625 663.859375 336.476562 663.382812 C 336.816406 662.902344 337.109375 662.402344 337.363281 661.875 C 337.617188 661.347656 337.820312 660.800781 337.980469 660.238281 C 338.140625 659.675781 338.253906 659.105469 338.316406 658.523438 C 338.378906 657.941406 338.394531 657.359375 338.355469 656.773438 C 338.320312 656.191406 338.234375 655.613281 338.101562 655.042969 C 337.96875 654.476562 337.789062 653.921875 337.558594 653.382812 C 337.332031 652.84375 337.0625 652.328125 336.746094 651.835938 C 332.457031 645.15625 328.792969 638.148438 325.757812 630.8125 C 322.71875 623.476562 320.355469 615.929688 318.667969 608.171875 C 318.542969 607.597656 318.371094 607.042969 318.148438 606.5 C 317.929688 605.957031 317.667969 605.4375 317.359375 604.9375 C 317.050781 604.441406 316.703125 603.972656 316.316406 603.535156 C 315.929688 603.09375 315.507812 602.691406 315.050781 602.324219 C 314.597656 601.957031 314.113281 601.632812 313.601562 601.347656 C 313.089844 601.0625 312.558594 600.820312 312.007812 600.628906 C 311.457031 600.433594 310.890625 600.285156 310.316406 600.1875 C 309.738281 600.089844 309.15625 600.039062 308.574219 600.039062 L 263.910156 600.039062 L 263.910156 558.683594 L 308.574219 558.683594 C 309.160156 558.683594 309.742188 558.636719 310.316406 558.539062 C 310.894531 558.4375 311.457031 558.292969 312.011719 558.097656 C 312.5625 557.902344 313.09375 557.664062 313.605469 557.378906 C 314.117188 557.09375 314.597656 556.765625 315.054688 556.398438 C 315.511719 556.03125 315.929688 555.628906 316.320312 555.191406 C 316.707031 554.753906 317.054688 554.285156 317.363281 553.785156 C 317.667969 553.289062 317.933594 552.769531 318.152344 552.226562 C 318.371094 551.683594 318.542969 551.125 318.667969 550.554688 C 320.359375 542.796875 322.722656 535.25 325.757812 527.914062 C 328.796875 520.582031 332.457031 513.574219 336.746094 506.894531 C 337.0625 506.402344 337.335938 505.886719 337.5625 505.347656 C 337.789062 504.808594 337.972656 504.253906 338.105469 503.683594 C 338.238281 503.113281 338.324219 502.539062 338.363281 501.953125 C 338.398438 501.367188 338.382812 500.785156 338.320312 500.203125 C 338.257812 499.621094 338.148438 499.050781 337.988281 498.484375 C 337.828125 497.921875 337.621094 497.378906 337.367188 496.847656 C 337.117188 496.320312 336.820312 495.816406 336.484375 495.339844 C 336.144531 494.863281 335.769531 494.417969 335.355469 494.003906 L 303.773438 462.394531 L 332.992188 433.15625 L 364.578125 464.761719 C 364.992188 465.175781 365.4375 465.550781 365.914062 465.890625 C 366.390625 466.226562 366.894531 466.523438 367.421875 466.773438 C 367.949219 467.027344 368.496094 467.234375 369.058594 467.394531 C 369.621094 467.554688 370.191406 467.664062 370.773438 467.730469 C 371.355469 467.792969 371.9375 467.804688 372.523438 467.769531 C 373.105469 467.730469 373.683594 467.648438 374.253906 467.511719 C 374.820312 467.378906 375.375 467.199219 375.914062 466.96875 C 376.453125 466.742188 376.96875 466.46875 377.460938 466.152344 C 384.136719 461.859375 391.136719 458.195312 398.464844 455.15625 C 405.792969 452.117188 413.332031 449.753906 421.085938 448.0625 C 421.65625 447.9375 422.210938 447.765625 422.753906 447.546875 C 423.296875 447.328125 423.816406 447.0625 424.316406 446.753906 C 424.8125 446.449219 425.28125 446.101562 425.71875 445.710938 C 426.15625 445.324219 426.558594 444.902344 426.925781 444.445312 C 427.292969 443.992188 427.621094 443.507812 427.902344 442.996094 C 428.1875 442.484375 428.429688 441.953125 428.625 441.402344 C 428.816406 440.847656 428.964844 440.285156 429.0625 439.707031 C 429.160156 439.128906 429.210938 438.546875 429.210938 437.964844 L 429.210938 393.269531 L 470.535156 393.269531 L 470.535156 437.964844 C 470.535156 438.550781 470.585938 439.132812 470.683594 439.707031 C 470.78125 440.285156 470.929688 440.851562 471.125 441.402344 C 471.316406 441.953125 471.558594 442.488281 471.84375 442.996094 C 472.128906 443.507812 472.453125 443.992188 472.820312 444.449219 C 473.1875 444.90625 473.589844 445.328125 474.027344 445.714844 C 474.464844 446.101562 474.933594 446.449219 475.433594 446.757812 C 475.929688 447.066406 476.449219 447.328125 476.992188 447.550781 C 477.535156 447.769531 478.089844 447.941406 478.664062 448.066406 C 486.414062 449.757812 493.957031 452.121094 501.285156 455.160156 C 508.617188 458.199219 515.621094 461.863281 522.296875 466.15625 C 522.789062 466.472656 523.304688 466.746094 523.839844 466.972656 C 524.378906 467.203125 524.933594 467.382812 525.503906 467.515625 C 526.074219 467.652344 526.648438 467.734375 527.234375 467.773438 C 527.816406 467.808594 528.398438 467.796875 528.980469 467.734375 C 529.5625 467.667969 530.136719 467.558594 530.699219 467.398438 C 531.261719 467.238281 531.804688 467.03125 532.332031 466.777344 C 532.863281 466.527344 533.363281 466.230469 533.839844 465.894531 C 534.320312 465.554688 534.765625 465.179688 535.179688 464.765625 L 566.761719 433.160156 L 595.984375 462.398438 L 564.394531 494.003906 C 563.980469 494.417969 563.605469 494.863281 563.269531 495.339844 C 562.929688 495.816406 562.632812 496.320312 562.382812 496.847656 C 562.128906 497.378906 561.921875 497.921875 561.761719 498.484375 C 561.601562 499.050781 561.492188 499.621094 561.429688 500.203125 C 561.367188 500.785156 561.351562 501.367188 561.390625 501.953125 C 561.425781 502.535156 561.511719 503.113281 561.644531 503.683594 C 561.777344 504.253906 561.960938 504.808594 562.1875 505.347656 C 562.417969 505.886719 562.6875 506.402344 563.003906 506.894531 C 567.292969 513.574219 570.953125 520.582031 573.992188 527.914062 C 577.027344 535.25 579.390625 542.796875 581.078125 550.554688 C 581.203125 551.125 581.378906 551.683594 581.597656 552.226562 C 581.816406 552.769531 582.078125 553.289062 582.386719 553.785156 C 582.695312 554.285156 583.042969 554.75 583.429688 555.191406 C 583.816406 555.628906 584.238281 556.03125 584.695312 556.398438 C 585.148438 556.765625 585.632812 557.09375 586.144531 557.378906 C 586.65625 557.664062 587.1875 557.902344 587.738281 558.097656 C 588.289062 558.292969 588.855469 558.4375 589.429688 558.539062 C 590.007812 558.636719 590.589844 558.683594 591.171875 558.683594 L 635.835938 558.683594 L 635.835938 600.039062 L 591.171875 600.039062 C 590.585938 600.039062 590.003906 600.089844 589.429688 600.1875 C 588.851562 600.285156 588.289062 600.433594 587.738281 600.628906 C 587.183594 600.820312 586.652344 601.0625 586.140625 601.347656 C 585.632812 601.632812 585.148438 601.957031 584.691406 602.324219 C 584.238281 602.691406 583.816406 603.09375 583.429688 603.535156 C 583.039062 603.972656 582.691406 604.441406 582.386719 604.9375 C 582.078125 605.4375 581.8125 605.957031 581.59375 606.5 C 581.375 607.042969 581.203125 607.597656 581.078125 608.171875 C 579.390625 615.929688 577.027344 623.476562 573.988281 630.8125 C 570.953125 638.148438 567.289062 645.15625 563 651.835938 C 562.683594 652.328125 562.414062 652.84375 562.183594 653.382812 C 561.957031 653.921875 561.773438 654.476562 561.640625 655.046875 C 561.507812 655.617188 561.421875 656.191406 561.386719 656.777344 C 561.347656 657.359375 561.363281 657.945312 561.425781 658.527344 C 561.488281 659.109375 561.597656 659.679688 561.757812 660.242188 C 561.917969 660.808594 562.125 661.351562 562.378906 661.878906 C 562.628906 662.410156 562.925781 662.910156 563.261719 663.390625 C 563.601562 663.867188 563.976562 664.3125 564.390625 664.726562 L 595.972656 696.332031 Z M 821.796875 114.132812 L 77.949219 114.132812 C 76.597656 114.132812 75.246094 114.199219 73.898438 114.335938 C 72.554688 114.46875 71.214844 114.667969 69.890625 114.933594 C 68.5625 115.199219 67.253906 115.527344 65.957031 115.921875 C 64.664062 116.316406 63.390625 116.773438 62.140625 117.292969 C 60.890625 117.8125 59.671875 118.390625 58.476562 119.027344 C 57.285156 119.667969 56.125 120.363281 55 121.113281 C 53.875 121.867188 52.789062 122.671875 51.746094 123.53125 C 50.699219 124.390625 49.699219 125.300781 48.742188 126.257812 C 47.785156 127.214844 46.875 128.214844 46.019531 129.261719 C 45.160156 130.308594 44.355469 131.394531 43.601562 132.519531 C 42.851562 133.648438 42.15625 134.808594 41.515625 136 C 40.878906 137.195312 40.300781 138.417969 39.78125 139.667969 C 39.261719 140.917969 38.808594 142.191406 38.414062 143.484375 C 38.019531 144.78125 37.691406 146.09375 37.425781 147.421875 C 37.160156 148.75 36.960938 150.085938 36.828125 151.433594 C 36.691406 152.78125 36.625 154.132812 36.625 155.484375 L 36.625 703.421875 C 36.625 704.777344 36.691406 706.128906 36.828125 707.476562 C 36.960938 708.824219 37.160156 710.160156 37.425781 711.488281 C 37.691406 712.816406 38.019531 714.128906 38.414062 715.421875 C 38.808594 716.71875 39.261719 717.992188 39.78125 719.242188 C 40.300781 720.492188 40.878906 721.714844 41.515625 722.910156 C 42.15625 724.101562 42.851562 725.261719 43.601562 726.386719 C 44.355469 727.511719 45.160156 728.597656 46.019531 729.644531 C 46.875 730.691406 47.785156 731.695312 48.742188 732.652344 C 49.699219 733.609375 50.699219 734.515625 51.746094 735.375 C 52.789062 736.234375 53.875 737.042969 55 737.792969 C 56.125 738.546875 57.285156 739.242188 58.476562 739.882812 C 59.671875 740.519531 60.890625 741.097656 62.140625 741.617188 C 63.390625 742.136719 64.664062 742.59375 65.957031 742.988281 C 67.253906 743.378906 68.5625 743.710938 69.890625 743.976562 C 71.214844 744.242188 72.554688 744.441406 73.898438 744.574219 C 75.246094 744.707031 76.597656 744.777344 77.949219 744.777344 L 253.578125 744.777344 C 254.257812 744.777344 254.929688 744.710938 255.59375 744.578125 C 256.261719 744.445312 256.90625 744.25 257.535156 743.992188 C 258.160156 743.730469 258.753906 743.414062 259.320312 743.035156 C 259.882812 742.65625 260.40625 742.230469 260.886719 741.75 C 261.363281 741.269531 261.792969 740.746094 262.167969 740.183594 C 262.546875 739.617188 262.863281 739.023438 263.125 738.394531 C 263.382812 737.769531 263.582031 737.121094 263.710938 736.457031 C 263.84375 735.789062 263.910156 735.117188 263.910156 734.4375 C 263.910156 733.761719 263.84375 733.089844 263.710938 732.421875 C 263.582031 731.757812 263.382812 731.109375 263.125 730.484375 C 262.863281 729.855469 262.546875 729.261719 262.167969 728.695312 C 261.792969 728.132812 261.363281 727.609375 260.886719 727.128906 C 260.40625 726.648438 259.882812 726.21875 259.320312 725.84375 C 258.753906 725.464844 258.160156 725.148438 257.535156 724.886719 C 256.90625 724.628906 256.261719 724.433594 255.59375 724.300781 C 254.929688 724.167969 254.257812 724.101562 253.578125 724.101562 L 77.949219 724.101562 C 77.273438 724.101562 76.597656 724.066406 75.925781 724 C 75.25 723.933594 74.582031 723.832031 73.917969 723.699219 C 73.257812 723.566406 72.601562 723.402344 71.953125 723.203125 C 71.304688 723.007812 70.671875 722.78125 70.046875 722.519531 C 69.421875 722.261719 68.808594 721.972656 68.214844 721.652344 C 67.617188 721.332031 67.039062 720.984375 66.476562 720.609375 C 65.914062 720.234375 65.371094 719.828125 64.847656 719.398438 C 64.324219 718.96875 63.824219 718.515625 63.34375 718.039062 C 62.867188 717.558594 62.414062 717.058594 61.984375 716.535156 C 61.554688 716.011719 61.152344 715.46875 60.777344 714.90625 C 60.398438 714.34375 60.050781 713.761719 59.734375 713.167969 C 59.414062 712.570312 59.125 711.957031 58.867188 711.332031 C 58.605469 710.707031 58.378906 710.070312 58.179688 709.421875 C 57.984375 708.777344 57.820312 708.121094 57.6875 707.457031 C 57.554688 706.792969 57.453125 706.125 57.386719 705.449219 C 57.320312 704.777344 57.285156 704.101562 57.285156 703.421875 L 57.285156 258.871094 L 842.460938 258.871094 L 842.460938 703.421875 C 842.460938 704.101562 842.425781 704.777344 842.359375 705.449219 C 842.292969 706.125 842.191406 706.792969 842.058594 707.457031 C 841.925781 708.121094 841.761719 708.777344 841.566406 709.421875 C 841.367188 710.070312 841.140625 710.707031 840.882812 711.332031 C 840.621094 711.957031 840.332031 712.570312 840.011719 713.167969 C 839.695312 713.761719 839.347656 714.34375 838.972656 714.90625 C 838.59375 715.46875 838.191406 716.011719 837.761719 716.535156 C 837.332031 717.058594 836.878906 717.558594 836.402344 718.039062 C 835.921875 718.515625 835.421875 718.96875 834.898438 719.398438 C 834.375 719.828125 833.835938 720.230469 833.273438 720.609375 C 832.710938 720.984375 832.128906 721.332031 831.535156 721.652344 C 830.9375 721.972656 830.328125 722.261719 829.703125 722.519531 C 829.078125 722.78125 828.441406 723.007812 827.792969 723.203125 C 827.144531 723.402344 826.492188 723.566406 825.828125 723.699219 C 825.164062 723.832031 824.496094 723.933594 823.824219 724 C 823.148438 724.066406 822.472656 724.101562 821.796875 724.101562 L 646.167969 724.101562 C 645.488281 724.101562 644.816406 724.167969 644.152344 724.300781 C 643.484375 724.433594 642.839844 724.628906 642.214844 724.886719 C 641.585938 725.148438 640.992188 725.464844 640.425781 725.84375 C 639.863281 726.21875 639.339844 726.648438 638.863281 727.128906 C 638.382812 727.609375 637.953125 728.132812 637.578125 728.695312 C 637.199219 729.261719 636.882812 729.855469 636.621094 730.484375 C 636.363281 731.109375 636.167969 731.757812 636.035156 732.421875 C 635.902344 733.089844 635.835938 733.761719 635.835938 734.4375 C 635.835938 735.117188 635.902344 735.789062 636.035156 736.457031 C 636.167969 737.121094 636.363281 737.769531 636.621094 738.394531 C 636.882812 739.023438 637.199219 739.617188 637.578125 740.183594 C 637.953125 740.746094 638.382812 741.269531 638.863281 741.75 C 639.339844 742.230469 639.863281 742.65625 640.425781 743.035156 C 640.992188 743.414062 641.585938 743.730469 642.214844 743.992188 C 642.839844 744.25 643.484375 744.445312 644.152344 744.578125 C 644.816406 744.710938 645.488281 744.777344 646.167969 744.777344 L 821.796875 744.777344 C 823.152344 744.777344 824.5 744.707031 825.847656 744.574219 C 827.191406 744.441406 828.53125 744.242188 829.855469 743.976562 C 831.183594 743.710938 832.496094 743.378906 833.789062 742.988281 C 835.082031 742.59375 836.355469 742.136719 837.605469 741.617188 C 838.855469 741.097656 840.074219 740.519531 841.269531 739.882812 C 842.460938 739.242188 843.621094 738.546875 844.746094 737.792969 C 845.871094 737.042969 846.957031 736.234375 848 735.375 C 849.046875 734.515625 850.046875 733.609375 851.003906 732.652344 C 851.960938 731.695312 852.871094 730.691406 853.726562 729.644531 C 854.585938 728.597656 855.390625 727.511719 856.144531 726.386719 C 856.894531 725.261719 857.589844 724.101562 858.230469 722.910156 C 858.867188 721.714844 859.445312 720.492188 859.964844 719.242188 C 860.484375 717.992188 860.9375 716.71875 861.332031 715.421875 C 861.726562 714.128906 862.054688 712.816406 862.320312 711.488281 C 862.585938 710.160156 862.785156 708.824219 862.917969 707.476562 C 863.054688 706.128906 863.121094 704.777344 863.121094 703.421875 L 863.121094 155.484375 C 863.121094 154.132812 863.054688 152.78125 862.917969 151.433594 C 862.785156 150.085938 862.585938 148.75 862.320312 147.421875 C 862.054688 146.09375 861.726562 144.78125 861.332031 143.484375 C 860.9375 142.191406 860.484375 140.917969 859.964844 139.667969 C 859.445312 138.417969 858.867188 137.195312 858.230469 136 C 857.589844 134.804688 856.894531 133.648438 856.144531 132.519531 C 855.390625 131.394531 854.585938 130.308594 853.726562 129.261719 C 852.871094 128.214844 851.960938 127.214844 851.003906 126.257812 C 850.046875 125.300781 849.046875 124.390625 848 123.53125 C 846.957031 122.671875 845.871094 121.867188 844.746094 121.113281 C 843.621094 120.363281 842.460938 119.667969 841.269531 119.027344 C 840.074219 118.390625 838.855469 117.8125 837.605469 117.292969 C 836.355469 116.773438 835.082031 116.316406 833.789062 115.921875 C 832.496094 115.527344 831.183594 115.199219 829.855469 114.933594 C 828.53125 114.667969 827.191406 114.46875 825.847656 114.335938 C 824.5 114.199219 823.152344 114.132812 821.796875 114.132812 Z M 57.285156 238.191406 L 57.285156 155.484375 C 57.285156 154.808594 57.320312 154.132812 57.386719 153.460938 C 57.453125 152.785156 57.554688 152.117188 57.6875 151.453125 C 57.820312 150.789062 57.984375 150.132812 58.179688 149.484375 C 58.378906 148.839844 58.605469 148.203125 58.867188 147.578125 C 59.125 146.949219 59.414062 146.339844 59.734375 145.742188 C 60.050781 145.144531 60.398438 144.566406 60.777344 144.003906 C 61.152344 143.441406 61.554688 142.898438 61.984375 142.375 C 62.414062 141.851562 62.867188 141.351562 63.34375 140.871094 C 63.824219 140.394531 64.324219 139.9375 64.847656 139.507812 C 65.371094 139.078125 65.914062 138.675781 66.476562 138.300781 C 67.039062 137.925781 67.617188 137.578125 68.214844 137.257812 C 68.808594 136.9375 69.421875 136.648438 70.046875 136.390625 C 70.671875 136.128906 71.304688 135.902344 71.953125 135.703125 C 72.601562 135.507812 73.257812 135.34375 73.917969 135.210938 C 74.582031 135.078125 75.25 134.976562 75.925781 134.910156 C 76.597656 134.84375 77.273438 134.808594 77.949219 134.808594 L 821.796875 134.808594 C 822.472656 134.808594 823.148438 134.84375 823.824219 134.910156 C 824.496094 134.976562 825.164062 135.078125 825.828125 135.210938 C 826.492188 135.34375 827.144531 135.507812 827.792969 135.703125 C 828.441406 135.902344 829.078125 136.128906 829.703125 136.390625 C 830.324219 136.648438 830.9375 136.9375 831.535156 137.257812 C 832.128906 137.578125 832.710938 137.925781 833.273438 138.300781 C 833.835938 138.675781 834.375 139.078125 834.898438 139.507812 C 835.421875 139.9375 835.921875 140.394531 836.402344 140.871094 C 836.878906 141.351562 837.332031 141.851562 837.761719 142.375 C 838.191406 142.898438 838.59375 143.441406 838.972656 144.003906 C 839.347656 144.566406 839.695312 145.144531 840.011719 145.742188 C 840.332031 146.339844 840.621094 146.949219 840.882812 147.578125 C 841.140625 148.203125 841.367188 148.839844 841.566406 149.484375 C 841.761719 150.132812 841.925781 150.789062 842.058594 151.453125 C 842.191406 152.117188 842.292969 152.785156 842.359375 153.460938 C 842.425781 154.132812 842.460938 154.808594 842.460938 155.484375 L 842.460938 238.191406 Z M 108.941406 155.484375 C 107.925781 155.484375 106.914062 155.535156 105.90625 155.632812 C 104.894531 155.734375 103.890625 155.882812 102.894531 156.082031 C 101.898438 156.28125 100.917969 156.527344 99.945312 156.820312 C 98.972656 157.117188 98.019531 157.457031 97.082031 157.847656 C 96.144531 158.234375 95.226562 158.667969 94.332031 159.148438 C 93.4375 159.625 92.566406 160.148438 91.722656 160.710938 C 90.878906 161.277344 90.066406 161.882812 89.28125 162.527344 C 88.496094 163.171875 87.746094 163.851562 87.027344 164.570312 C 86.308594 165.289062 85.628906 166.039062 84.984375 166.824219 C 84.339844 167.609375 83.734375 168.425781 83.171875 169.269531 C 82.609375 170.113281 82.085938 170.984375 81.609375 171.878906 C 81.128906 172.777344 80.695312 173.691406 80.308594 174.632812 C 79.917969 175.570312 79.578125 176.523438 79.285156 177.496094 C 78.988281 178.46875 78.742188 179.453125 78.542969 180.449219 C 78.347656 181.445312 78.199219 182.449219 78.097656 183.460938 C 78 184.472656 77.949219 185.484375 77.949219 186.5 C 77.949219 187.515625 78 188.53125 78.097656 189.539062 C 78.199219 190.550781 78.347656 191.554688 78.542969 192.550781 C 78.742188 193.546875 78.988281 194.53125 79.285156 195.503906 C 79.578125 196.476562 79.917969 197.429688 80.308594 198.371094 C 80.695312 199.308594 81.128906 200.226562 81.609375 201.121094 C 82.085938 202.015625 82.609375 202.886719 83.171875 203.730469 C 83.734375 204.578125 84.339844 205.390625 84.984375 206.175781 C 85.628906 206.960938 86.308594 207.714844 87.027344 208.433594 C 87.746094 209.148438 88.496094 209.832031 89.28125 210.476562 C 90.066406 211.121094 90.878906 211.726562 91.722656 212.289062 C 92.566406 212.851562 93.4375 213.375 94.332031 213.855469 C 95.226562 214.332031 96.144531 214.765625 97.082031 215.15625 C 98.019531 215.542969 98.972656 215.886719 99.945312 216.179688 C 100.917969 216.476562 101.898438 216.722656 102.894531 216.921875 C 103.890625 217.117188 104.894531 217.265625 105.90625 217.367188 C 106.914062 217.464844 107.925781 217.515625 108.941406 217.515625 C 109.957031 217.515625 110.96875 217.464844 111.980469 217.367188 C 112.992188 217.265625 113.992188 217.117188 114.988281 216.921875 C 115.984375 216.722656 116.96875 216.476562 117.941406 216.179688 C 118.910156 215.886719 119.867188 215.542969 120.804688 215.15625 C 121.742188 214.765625 122.65625 214.332031 123.554688 213.855469 C 124.449219 213.375 125.316406 212.851562 126.160156 212.289062 C 127.003906 211.726562 127.820312 211.121094 128.605469 210.476562 C 129.390625 209.832031 130.140625 209.148438 130.859375 208.433594 C 131.574219 207.714844 132.257812 206.960938 132.902344 206.175781 C 133.546875 205.390625 134.148438 204.578125 134.710938 203.730469 C 135.277344 202.886719 135.796875 202.015625 136.277344 201.121094 C 136.753906 200.226562 137.1875 199.308594 137.578125 198.371094 C 137.964844 197.429688 138.308594 196.476562 138.601562 195.503906 C 138.894531 194.53125 139.144531 193.546875 139.339844 192.550781 C 139.539062 191.554688 139.6875 190.550781 139.785156 189.539062 C 139.886719 188.53125 139.9375 187.515625 139.9375 186.5 C 139.933594 185.484375 139.882812 184.472656 139.785156 183.460938 C 139.683594 182.453125 139.535156 181.449219 139.335938 180.453125 C 139.136719 179.457031 138.890625 178.472656 138.59375 177.5 C 138.296875 176.53125 137.957031 175.574219 137.566406 174.636719 C 137.179688 173.699219 136.746094 172.78125 136.265625 171.886719 C 135.789062 170.992188 135.265625 170.121094 134.703125 169.277344 C 134.136719 168.433594 133.535156 167.617188 132.890625 166.835938 C 132.246094 166.050781 131.566406 165.296875 130.847656 164.578125 C 130.128906 163.863281 129.378906 163.179688 128.59375 162.535156 C 127.8125 161.890625 126.996094 161.289062 126.152344 160.722656 C 125.308594 160.160156 124.441406 159.636719 123.546875 159.15625 C 122.652344 158.679688 121.734375 158.246094 120.796875 157.855469 C 119.859375 157.464844 118.90625 157.125 117.9375 156.828125 C 116.964844 156.535156 115.980469 156.285156 114.988281 156.085938 C 113.992188 155.886719 112.988281 155.738281 111.980469 155.636719 C 110.96875 155.539062 109.957031 155.488281 108.941406 155.484375 Z M 108.941406 196.839844 C 108.265625 196.839844 107.59375 196.773438 106.925781 196.640625 C 106.261719 196.507812 105.617188 196.3125 104.988281 196.050781 C 104.363281 195.792969 103.765625 195.472656 103.203125 195.097656 C 102.640625 194.71875 102.117188 194.292969 101.636719 193.8125 C 101.15625 193.332031 100.730469 192.808594 100.351562 192.246094 C 99.976562 191.679688 99.65625 191.085938 99.398438 190.457031 C 99.136719 189.828125 98.941406 189.183594 98.808594 188.519531 C 98.675781 187.851562 98.609375 187.179688 98.609375 186.5 C 98.609375 185.820312 98.675781 185.148438 98.808594 184.484375 C 98.941406 183.816406 99.136719 183.171875 99.398438 182.542969 C 99.65625 181.917969 99.976562 181.320312 100.351562 180.757812 C 100.730469 180.191406 101.15625 179.671875 101.636719 179.191406 C 102.117188 178.710938 102.640625 178.28125 103.203125 177.90625 C 103.765625 177.527344 104.363281 177.210938 104.988281 176.949219 C 105.617188 176.691406 106.261719 176.492188 106.925781 176.359375 C 107.59375 176.226562 108.265625 176.164062 108.941406 176.164062 C 109.621094 176.164062 110.292969 176.226562 110.957031 176.359375 C 111.625 176.492188 112.269531 176.691406 112.894531 176.949219 C 113.523438 177.210938 114.117188 177.527344 114.683594 177.90625 C 115.246094 178.28125 115.769531 178.710938 116.246094 179.191406 C 116.726562 179.671875 117.15625 180.191406 117.53125 180.757812 C 117.910156 181.320312 118.226562 181.917969 118.488281 182.542969 C 118.746094 183.171875 118.941406 183.816406 119.074219 184.484375 C 119.207031 185.148438 119.273438 185.820312 119.273438 186.5 C 119.273438 187.179688 119.207031 187.851562 119.074219 188.515625 C 118.941406 189.183594 118.742188 189.828125 118.484375 190.457031 C 118.222656 191.082031 117.90625 191.675781 117.527344 192.242188 C 117.152344 192.804688 116.722656 193.328125 116.246094 193.808594 C 115.765625 194.289062 115.242188 194.714844 114.679688 195.09375 C 114.117188 195.46875 113.519531 195.789062 112.894531 196.050781 C 112.269531 196.308594 111.621094 196.503906 110.957031 196.636719 C 110.292969 196.773438 109.621094 196.839844 108.941406 196.839844 Z M 191.59375 155.484375 C 190.578125 155.484375 189.566406 155.535156 188.554688 155.632812 C 187.542969 155.734375 186.542969 155.882812 185.546875 156.082031 C 184.550781 156.28125 183.566406 156.527344 182.59375 156.820312 C 181.625 157.117188 180.667969 157.457031 179.730469 157.847656 C 178.792969 158.234375 177.878906 158.667969 176.980469 159.148438 C 176.085938 159.625 175.21875 160.148438 174.375 160.710938 C 173.527344 161.277344 172.714844 161.882812 171.929688 162.527344 C 171.144531 163.171875 170.394531 163.851562 169.675781 164.570312 C 168.957031 165.289062 168.277344 166.039062 167.632812 166.824219 C 166.988281 167.609375 166.386719 168.425781 165.820312 169.269531 C 165.257812 170.113281 164.738281 170.984375 164.257812 171.878906 C 163.78125 172.777344 163.347656 173.691406 162.957031 174.632812 C 162.570312 175.570312 162.226562 176.523438 161.933594 177.496094 C 161.636719 178.46875 161.390625 179.453125 161.195312 180.449219 C 160.996094 181.445312 160.847656 182.449219 160.746094 183.460938 C 160.648438 184.472656 160.597656 185.484375 160.597656 186.5 C 160.597656 187.515625 160.648438 188.53125 160.746094 189.539062 C 160.847656 190.550781 160.996094 191.554688 161.195312 192.550781 C 161.390625 193.546875 161.636719 194.53125 161.933594 195.503906 C 162.226562 196.476562 162.570312 197.429688 162.957031 198.371094 C 163.347656 199.308594 163.78125 200.226562 164.257812 201.121094 C 164.738281 202.015625 165.257812 202.886719 165.820312 203.730469 C 166.386719 204.578125 166.988281 205.390625 167.632812 206.175781 C 168.277344 206.960938 168.957031 207.714844 169.675781 208.433594 C 170.394531 209.148438 171.144531 209.832031 171.929688 210.476562 C 172.714844 211.121094 173.527344 211.726562 174.375 212.289062 C 175.21875 212.851562 176.085938 213.375 176.980469 213.855469 C 177.878906 214.332031 178.792969 214.765625 179.730469 215.15625 C 180.667969 215.542969 181.625 215.886719 182.59375 216.179688 C 183.566406 216.476562 184.550781 216.722656 185.546875 216.921875 C 186.542969 217.117188 187.542969 217.265625 188.554688 217.367188 C 189.566406 217.464844 190.578125 217.515625 191.59375 217.515625 C 192.609375 217.515625 193.621094 217.464844 194.628906 217.367188 C 195.640625 217.265625 196.644531 217.117188 197.640625 216.921875 C 198.632812 216.722656 199.617188 216.476562 200.589844 216.179688 C 201.5625 215.886719 202.515625 215.542969 203.453125 215.15625 C 204.390625 214.765625 205.308594 214.332031 206.203125 213.855469 C 207.097656 213.375 207.96875 212.851562 208.8125 212.289062 C 209.65625 211.726562 210.46875 211.121094 211.253906 210.476562 C 212.039062 209.832031 212.789062 209.148438 213.507812 208.433594 C 214.226562 207.714844 214.90625 206.960938 215.550781 206.175781 C 216.195312 205.390625 216.796875 204.578125 217.363281 203.730469 C 217.925781 202.886719 218.449219 202.015625 218.925781 201.121094 C 219.40625 200.226562 219.839844 199.308594 220.226562 198.371094 C 220.617188 197.429688 220.957031 196.476562 221.25 195.503906 C 221.546875 194.53125 221.792969 193.546875 221.992188 192.550781 C 222.1875 191.554688 222.335938 190.550781 222.4375 189.539062 C 222.535156 188.53125 222.585938 187.515625 222.585938 186.5 C 222.585938 185.484375 222.535156 184.472656 222.433594 183.460938 C 222.332031 182.453125 222.183594 181.449219 221.984375 180.453125 C 221.785156 179.457031 221.539062 178.472656 221.242188 177.5 C 220.949219 176.53125 220.605469 175.574219 220.21875 174.636719 C 219.828125 173.699219 219.394531 172.78125 218.917969 171.886719 C 218.4375 170.992188 217.914062 170.121094 217.351562 169.277344 C 216.789062 168.433594 216.183594 167.617188 215.539062 166.835938 C 214.894531 166.050781 214.214844 165.296875 213.496094 164.578125 C 212.78125 163.863281 212.03125 163.179688 211.246094 162.535156 C 210.460938 161.890625 209.648438 161.289062 208.804688 160.722656 C 207.960938 160.160156 207.089844 159.636719 206.195312 159.15625 C 205.300781 158.679688 204.386719 158.246094 203.449219 157.855469 C 202.511719 157.464844 201.554688 157.125 200.585938 156.828125 C 199.613281 156.535156 198.632812 156.285156 197.636719 156.085938 C 196.640625 155.886719 195.640625 155.738281 194.628906 155.636719 C 193.621094 155.539062 192.605469 155.488281 191.59375 155.484375 Z M 191.59375 196.839844 C 190.914062 196.839844 190.242188 196.773438 189.578125 196.640625 C 188.910156 196.507812 188.265625 196.3125 187.640625 196.050781 C 187.011719 195.792969 186.417969 195.472656 185.851562 195.097656 C 185.289062 194.71875 184.765625 194.292969 184.285156 193.8125 C 183.808594 193.332031 183.378906 192.808594 183.003906 192.246094 C 182.625 191.679688 182.308594 191.085938 182.046875 190.457031 C 181.789062 189.828125 181.59375 189.183594 181.460938 188.519531 C 181.328125 187.851562 181.261719 187.179688 181.261719 186.5 C 181.261719 185.820312 181.328125 185.148438 181.460938 184.484375 C 181.59375 183.816406 181.789062 183.171875 182.046875 182.542969 C 182.308594 181.917969 182.625 181.320312 183.003906 180.757812 C 183.378906 180.191406 183.808594 179.671875 184.285156 179.191406 C 184.765625 178.710938 185.289062 178.28125 185.851562 177.90625 C 186.417969 177.527344 187.011719 177.210938 187.640625 176.949219 C 188.265625 176.691406 188.910156 176.492188 189.578125 176.359375 C 190.242188 176.226562 190.914062 176.164062 191.59375 176.164062 C 192.269531 176.164062 192.941406 176.226562 193.609375 176.359375 C 194.273438 176.492188 194.917969 176.691406 195.546875 176.949219 C 196.171875 177.210938 196.769531 177.527344 197.332031 177.90625 C 197.894531 178.28125 198.417969 178.710938 198.898438 179.191406 C 199.378906 179.671875 199.804688 180.191406 200.183594 180.757812 C 200.558594 181.320312 200.878906 181.917969 201.136719 182.542969 C 201.398438 183.171875 201.59375 183.816406 201.726562 184.484375 C 201.859375 185.148438 201.921875 185.820312 201.921875 186.5 C 201.921875 187.179688 201.855469 187.851562 201.722656 188.515625 C 201.589844 189.183594 201.394531 189.828125 201.132812 190.457031 C 200.875 191.082031 200.554688 191.675781 200.179688 192.242188 C 199.800781 192.804688 199.375 193.328125 198.894531 193.808594 C 198.414062 194.289062 197.894531 194.714844 197.328125 195.09375 C 196.765625 195.46875 196.171875 195.789062 195.542969 196.050781 C 194.917969 196.308594 194.273438 196.503906 193.605469 196.636719 C 192.941406 196.773438 192.269531 196.839844 191.59375 196.839844 Z M 274.242188 155.484375 C 273.226562 155.484375 272.214844 155.535156 271.203125 155.632812 C 270.195312 155.734375 269.191406 155.882812 268.195312 156.082031 C 267.199219 156.28125 266.214844 156.527344 265.246094 156.820312 C 264.273438 157.117188 263.320312 157.457031 262.382812 157.847656 C 261.445312 158.234375 260.527344 158.667969 259.632812 159.148438 C 258.738281 159.625 257.867188 160.148438 257.023438 160.710938 C 256.179688 161.277344 255.363281 161.882812 254.582031 162.527344 C 253.796875 163.171875 253.042969 163.851562 252.328125 164.570312 C 251.609375 165.289062 250.929688 166.039062 250.285156 166.824219 C 249.640625 167.609375 249.035156 168.425781 248.472656 169.269531 C 247.90625 170.113281 247.386719 170.984375 246.910156 171.878906 C 246.429688 172.777344 245.996094 173.691406 245.609375 174.632812 C 245.21875 175.570312 244.878906 176.523438 244.582031 177.496094 C 244.289062 178.46875 244.042969 179.453125 243.84375 180.449219 C 243.644531 181.445312 243.496094 182.449219 243.398438 183.460938 C 243.296875 184.472656 243.25 185.484375 243.25 186.5 C 243.25 187.515625 243.296875 188.53125 243.398438 189.539062 C 243.496094 190.550781 243.644531 191.554688 243.84375 192.550781 C 244.042969 193.546875 244.289062 194.53125 244.582031 195.503906 C 244.878906 196.476562 245.21875 197.429688 245.609375 198.371094 C 245.996094 199.308594 246.429688 200.226562 246.910156 201.121094 C 247.386719 202.015625 247.90625 202.886719 248.472656 203.730469 C 249.035156 204.578125 249.640625 205.390625 250.285156 206.175781 C 250.929688 206.960938 251.609375 207.714844 252.328125 208.433594 C 253.042969 209.148438 253.796875 209.832031 254.582031 210.476562 C 255.363281 211.121094 256.179688 211.726562 257.023438 212.289062 C 257.867188 212.851562 258.738281 213.375 259.632812 213.855469 C 260.527344 214.332031 261.445312 214.765625 262.382812 215.15625 C 263.320312 215.542969 264.273438 215.886719 265.246094 216.179688 C 266.214844 216.476562 267.199219 216.722656 268.195312 216.921875 C 269.191406 217.117188 270.195312 217.265625 271.203125 217.367188 C 272.214844 217.464844 273.226562 217.515625 274.242188 217.515625 C 275.257812 217.515625 276.269531 217.464844 277.28125 217.367188 C 278.289062 217.265625 279.292969 217.117188 280.289062 216.921875 C 281.285156 216.722656 282.269531 216.476562 283.238281 216.179688 C 284.210938 215.886719 285.164062 215.542969 286.101562 215.15625 C 287.039062 214.765625 287.957031 214.332031 288.851562 213.855469 C 289.746094 213.375 290.617188 212.851562 291.460938 212.289062 C 292.304688 211.726562 293.121094 211.121094 293.90625 210.476562 C 294.6875 209.832031 295.441406 209.148438 296.15625 208.433594 C 296.875 207.714844 297.558594 206.960938 298.199219 206.175781 C 298.84375 205.390625 299.449219 204.578125 300.011719 203.730469 C 300.578125 202.886719 301.097656 202.015625 301.578125 201.121094 C 302.054688 200.226562 302.488281 199.308594 302.875 198.371094 C 303.265625 197.429688 303.605469 196.476562 303.902344 195.503906 C 304.195312 194.53125 304.441406 193.546875 304.640625 192.550781 C 304.839844 191.554688 304.988281 190.550781 305.085938 189.539062 C 305.1875 188.53125 305.234375 187.515625 305.234375 186.5 C 305.234375 185.484375 305.183594 184.472656 305.082031 183.460938 C 304.984375 182.453125 304.832031 181.449219 304.632812 180.453125 C 304.4375 179.457031 304.1875 178.472656 303.894531 177.5 C 303.597656 176.53125 303.257812 175.574219 302.867188 174.636719 C 302.476562 173.699219 302.042969 172.78125 301.566406 171.886719 C 301.085938 170.992188 300.566406 170.121094 300 169.277344 C 299.4375 168.433594 298.832031 167.617188 298.191406 166.835938 C 297.546875 166.050781 296.867188 165.296875 296.148438 164.578125 C 295.429688 163.863281 294.679688 163.179688 293.894531 162.535156 C 293.109375 161.890625 292.296875 161.289062 291.453125 160.722656 C 290.609375 160.160156 289.742188 159.636719 288.84375 159.15625 C 287.949219 158.679688 287.035156 158.246094 286.097656 157.855469 C 285.160156 157.464844 284.207031 157.125 283.234375 156.828125 C 282.265625 156.535156 281.28125 156.285156 280.285156 156.085938 C 279.292969 155.886719 278.289062 155.738281 277.277344 155.636719 C 276.269531 155.539062 275.257812 155.488281 274.242188 155.484375 Z M 274.242188 196.839844 C 273.5625 196.839844 272.890625 196.773438 272.226562 196.640625 C 271.5625 196.507812 270.914062 196.3125 270.289062 196.050781 C 269.660156 195.792969 269.066406 195.472656 268.503906 195.097656 C 267.9375 194.71875 267.417969 194.292969 266.9375 193.8125 C 266.457031 193.332031 266.027344 192.808594 265.652344 192.246094 C 265.273438 191.679688 264.957031 191.085938 264.699219 190.457031 C 264.4375 189.828125 264.242188 189.183594 264.109375 188.519531 C 263.976562 187.851562 263.910156 187.179688 263.910156 186.5 C 263.910156 185.820312 263.976562 185.148438 264.109375 184.484375 C 264.242188 183.816406 264.4375 183.171875 264.699219 182.542969 C 264.957031 181.917969 265.273438 181.320312 265.652344 180.757812 C 266.027344 180.191406 266.457031 179.671875 266.9375 179.191406 C 267.417969 178.710938 267.9375 178.28125 268.503906 177.90625 C 269.066406 177.527344 269.660156 177.210938 270.289062 176.949219 C 270.914062 176.691406 271.5625 176.492188 272.226562 176.359375 C 272.890625 176.226562 273.5625 176.164062 274.242188 176.164062 C 274.921875 176.164062 275.59375 176.226562 276.257812 176.359375 C 276.921875 176.492188 277.570312 176.691406 278.195312 176.949219 C 278.824219 177.210938 279.417969 177.527344 279.980469 177.90625 C 280.546875 178.28125 281.066406 178.710938 281.546875 179.191406 C 282.027344 179.671875 282.457031 180.191406 282.832031 180.757812 C 283.210938 181.320312 283.527344 181.917969 283.785156 182.542969 C 284.046875 183.171875 284.242188 183.816406 284.375 184.484375 C 284.507812 185.148438 284.574219 185.820312 284.574219 186.5 C 284.574219 187.179688 284.507812 187.851562 284.375 188.515625 C 284.242188 189.183594 284.042969 189.828125 283.785156 190.457031 C 283.523438 191.082031 283.207031 191.675781 282.828125 192.242188 C 282.453125 192.804688 282.023438 193.328125 281.542969 193.808594 C 281.066406 194.289062 280.542969 194.714844 279.980469 195.09375 C 279.414062 195.46875 278.820312 195.789062 278.195312 196.050781 C 277.566406 196.308594 276.921875 196.503906 276.257812 196.636719 C 275.59375 196.773438 274.921875 196.839844 274.242188 196.839844 Z M 274.242188 196.839844 "/>
</g>
</g>
</svg>
