<?xml version="1.0" encoding="UTF-8"?>
<svg xmlns="http://www.w3.org/2000/svg" xmlns:xlink="http://www.w3.org/1999/xlink" width="900pt" height="899.99999pt" viewBox="0 0 900 899.99999" version="1.2">
<defs>
<clipPath id="clip1">
  <path d="M 26.585938 26.585938 L 873.335938 26.585938 L 873.335938 873.335938 L 26.585938 873.335938 Z M 26.585938 26.585938 "/>
</clipPath>
</defs>
<g id="surface1">
<g clip-path="url(#clip1)" clip-rule="nonzero">
<path style=" stroke:none;fill-rule:nonzero;fill:rgb(94.509888%,73.329163%,48.629761%);fill-opacity:1;" d="M 859.679688 26.585938 L 40.242188 26.585938 C 32.703125 26.585938 26.585938 32.703125 26.585938 40.242188 L 26.585938 859.679688 C 26.585938 867.21875 32.703125 873.335938 40.242188 873.335938 L 859.679688 873.335938 C 867.21875 873.335938 873.335938 867.21875 873.335938 859.679688 L 873.335938 40.242188 C 873.335938 32.703125 867.21875 26.585938 859.679688 26.585938 Z M 846.019531 53.898438 L 846.019531 190.472656 L 53.898438 190.472656 L 53.898438 53.898438 Z M 53.898438 846.019531 L 53.898438 217.789062 L 846.019531 217.789062 L 846.019531 846.019531 Z M 53.898438 846.019531 "/>
</g>
<path style=" stroke:none;fill-rule:nonzero;fill:rgb(94.509888%,73.329163%,48.629761%);fill-opacity:1;" d="M 122.1875 163.160156 C 144.777344 163.160156 163.160156 144.777344 163.160156 122.1875 C 163.160156 99.597656 144.777344 81.214844 122.1875 81.214844 C 99.597656 81.214844 81.214844 99.597656 81.214844 122.1875 C 81.214844 144.777344 99.597656 163.160156 122.1875 163.160156 Z M 122.1875 108.527344 C 129.710938 108.527344 135.84375 114.660156 135.84375 122.1875 C 135.84375 129.710938 129.710938 135.84375 122.1875 135.84375 C 114.660156 135.84375 108.527344 129.710938 108.527344 122.1875 C 108.527344 114.660156 114.660156 108.527344 122.1875 108.527344 Z M 122.1875 108.527344 "/>
<path style=" stroke:none;fill-rule:nonzero;fill:rgb(94.509888%,73.329163%,48.629761%);fill-opacity:1;" d="M 231.445312 163.160156 C 254.035156 163.160156 272.417969 144.777344 272.417969 122.1875 C 272.417969 99.597656 254.035156 81.214844 231.445312 81.214844 C 208.855469 81.214844 190.472656 99.597656 190.472656 122.1875 C 190.472656 144.777344 208.855469 163.160156 231.445312 163.160156 Z M 231.445312 108.527344 C 238.96875 108.527344 245.101562 114.660156 245.101562 122.1875 C 245.101562 129.710938 238.96875 135.84375 231.445312 135.84375 C 223.917969 135.84375 217.789062 129.710938 217.789062 122.1875 C 217.789062 114.660156 223.917969 108.527344 231.445312 108.527344 Z M 231.445312 108.527344 "/>
<path style=" stroke:none;fill-rule:nonzero;fill:rgb(94.509888%,73.329163%,48.629761%);fill-opacity:1;" d="M 340.703125 163.160156 C 363.292969 163.160156 381.675781 144.777344 381.675781 122.1875 C 381.675781 99.597656 363.292969 81.214844 340.703125 81.214844 C 318.113281 81.214844 299.730469 99.597656 299.730469 122.1875 C 299.730469 144.777344 318.113281 163.160156 340.703125 163.160156 Z M 340.703125 108.527344 C 348.226562 108.527344 354.359375 114.660156 354.359375 122.1875 C 354.359375 129.710938 348.226562 135.84375 340.703125 135.84375 C 333.175781 135.84375 327.046875 129.710938 327.046875 122.1875 C 327.046875 114.660156 333.175781 108.527344 340.703125 108.527344 Z M 340.703125 108.527344 "/>
<path style=" stroke:none;fill-rule:nonzero;fill:rgb(94.509888%,73.329163%,48.629761%);fill-opacity:1;" d="M 791.390625 81.214844 L 818.707031 81.214844 L 818.707031 108.527344 L 791.390625 108.527344 Z M 791.390625 81.214844 "/>
<path style=" stroke:none;fill-rule:nonzero;fill:rgb(94.509888%,73.329163%,48.629761%);fill-opacity:1;" d="M 736.761719 81.214844 L 764.078125 81.214844 L 764.078125 108.527344 L 736.761719 108.527344 Z M 736.761719 81.214844 "/>
<path style=" stroke:none;fill-rule:nonzero;fill:rgb(94.509888%,73.329163%,48.629761%);fill-opacity:1;" d="M 682.132812 81.214844 L 709.449219 81.214844 L 709.449219 108.527344 L 682.132812 108.527344 Z M 682.132812 81.214844 "/>
<path style=" stroke:none;fill-rule:nonzero;fill:rgb(94.509888%,73.329163%,48.629761%);fill-opacity:1;" d="M 94.871094 354.359375 L 231.445312 354.359375 C 238.984375 354.359375 245.101562 348.242188 245.101562 340.703125 L 245.101562 286.074219 C 245.101562 278.535156 238.984375 272.417969 231.445312 272.417969 L 94.871094 272.417969 C 87.332031 272.417969 81.214844 278.535156 81.214844 286.074219 L 81.214844 340.703125 C 81.214844 348.242188 87.332031 354.359375 94.871094 354.359375 Z M 108.527344 299.730469 L 217.789062 299.730469 L 217.789062 327.046875 L 108.527344 327.046875 Z M 108.527344 299.730469 "/>
<path style=" stroke:none;fill-rule:nonzero;fill:rgb(94.509888%,73.329163%,48.629761%);fill-opacity:1;" d="M 805.050781 272.417969 L 286.074219 272.417969 C 278.535156 272.417969 272.417969 278.535156 272.417969 286.074219 L 272.417969 340.703125 C 272.417969 348.242188 278.535156 354.359375 286.074219 354.359375 L 805.050781 354.359375 C 812.589844 354.359375 818.707031 348.242188 818.707031 340.703125 L 818.707031 286.074219 C 818.707031 278.535156 812.589844 272.417969 805.050781 272.417969 Z M 791.390625 327.046875 L 299.730469 327.046875 L 299.730469 299.730469 L 791.390625 299.730469 Z M 791.390625 327.046875 "/>
<path style=" stroke:none;fill-rule:nonzero;fill:rgb(94.509888%,73.329163%,48.629761%);fill-opacity:1;" d="M 327.046875 395.332031 C 327.046875 387.792969 320.925781 381.675781 313.386719 381.675781 L 231.445312 381.675781 C 223.90625 381.675781 217.789062 387.792969 217.789062 395.332031 L 217.789062 449.960938 C 217.789062 457.5 223.90625 463.617188 231.445312 463.617188 L 313.386719 463.617188 C 320.925781 463.617188 327.046875 457.5 327.046875 449.960938 Z M 299.730469 436.304688 L 245.101562 436.304688 L 245.101562 408.988281 L 299.730469 408.988281 Z M 299.730469 436.304688 "/>
<path style=" stroke:none;fill-rule:nonzero;fill:rgb(94.509888%,73.329163%,48.629761%);fill-opacity:1;" d="M 805.050781 381.675781 L 368.015625 381.675781 C 360.476562 381.675781 354.359375 387.792969 354.359375 395.332031 L 354.359375 449.960938 C 354.359375 457.5 360.476562 463.617188 368.015625 463.617188 L 805.050781 463.617188 C 812.589844 463.617188 818.707031 457.5 818.707031 449.960938 L 818.707031 395.332031 C 818.707031 387.792969 812.589844 381.675781 805.050781 381.675781 Z M 791.390625 436.304688 L 381.675781 436.304688 L 381.675781 408.988281 L 791.390625 408.988281 Z M 791.390625 436.304688 "/>
<path style=" stroke:none;fill-rule:nonzero;fill:rgb(94.509888%,73.329163%,48.629761%);fill-opacity:1;" d="M 245.101562 668.476562 L 245.101562 613.847656 C 245.101562 606.308594 238.984375 600.191406 231.445312 600.191406 L 94.871094 600.191406 C 87.332031 600.191406 81.214844 606.308594 81.214844 613.847656 L 81.214844 668.476562 C 81.214844 676.015625 87.332031 682.132812 94.871094 682.132812 L 231.445312 682.132812 C 238.984375 682.132812 245.101562 676.015625 245.101562 668.476562 Z M 217.789062 654.820312 L 108.527344 654.820312 L 108.527344 627.503906 L 217.789062 627.503906 Z M 217.789062 654.820312 "/>
<path style=" stroke:none;fill-rule:nonzero;fill:rgb(94.509888%,73.329163%,48.629761%);fill-opacity:1;" d="M 805.050781 600.191406 L 286.074219 600.191406 C 278.535156 600.191406 272.417969 606.308594 272.417969 613.847656 L 272.417969 668.476562 C 272.417969 676.015625 278.535156 682.132812 286.074219 682.132812 L 805.050781 682.132812 C 812.589844 682.132812 818.707031 676.015625 818.707031 668.476562 L 818.707031 613.847656 C 818.707031 606.308594 812.589844 600.191406 805.050781 600.191406 Z M 791.390625 654.820312 L 299.730469 654.820312 L 299.730469 627.503906 L 791.390625 627.503906 Z M 791.390625 654.820312 "/>
<path style=" stroke:none;fill-rule:nonzero;fill:rgb(94.509888%,73.329163%,48.629761%);fill-opacity:1;" d="M 313.386719 709.449219 L 231.445312 709.449219 C 223.90625 709.449219 217.789062 715.566406 217.789062 723.105469 L 217.789062 777.734375 C 217.789062 785.273438 223.90625 791.390625 231.445312 791.390625 L 313.386719 791.390625 C 320.925781 791.390625 327.046875 785.273438 327.046875 777.734375 L 327.046875 723.105469 C 327.046875 715.566406 320.925781 709.449219 313.386719 709.449219 Z M 299.730469 764.078125 L 245.101562 764.078125 L 245.101562 736.761719 L 299.730469 736.761719 Z M 299.730469 764.078125 "/>
<path style=" stroke:none;fill-rule:nonzero;fill:rgb(94.509888%,73.329163%,48.629761%);fill-opacity:1;" d="M 805.050781 709.449219 L 368.015625 709.449219 C 360.476562 709.449219 354.359375 715.566406 354.359375 723.105469 L 354.359375 777.734375 C 354.359375 785.273438 360.476562 791.390625 368.015625 791.390625 L 805.050781 791.390625 C 812.589844 791.390625 818.707031 785.273438 818.707031 777.734375 L 818.707031 723.105469 C 818.707031 715.566406 812.589844 709.449219 805.050781 709.449219 Z M 791.390625 764.078125 L 381.675781 764.078125 L 381.675781 736.761719 L 791.390625 736.761719 Z M 791.390625 764.078125 "/>
<path style=" stroke:none;fill-rule:nonzero;fill:rgb(94.509888%,73.329163%,48.629761%);fill-opacity:1;" d="M 313.386719 490.933594 L 231.445312 490.933594 C 223.90625 490.933594 217.789062 497.050781 217.789062 504.589844 L 217.789062 559.21875 C 217.789062 566.757812 223.90625 572.875 231.445312 572.875 L 313.386719 572.875 C 320.925781 572.875 327.046875 566.757812 327.046875 559.21875 L 327.046875 504.589844 C 327.046875 497.050781 320.925781 490.933594 313.386719 490.933594 Z M 299.730469 545.5625 L 245.101562 545.5625 L 245.101562 518.246094 L 299.730469 518.246094 Z M 299.730469 545.5625 "/>
<path style=" stroke:none;fill-rule:nonzero;fill:rgb(94.509888%,73.329163%,48.629761%);fill-opacity:1;" d="M 805.050781 490.933594 L 368.015625 490.933594 C 360.476562 490.933594 354.359375 497.050781 354.359375 504.589844 L 354.359375 559.21875 C 354.359375 566.757812 360.476562 572.875 368.015625 572.875 L 805.050781 572.875 C 812.589844 572.875 818.707031 566.757812 818.707031 559.21875 L 818.707031 504.589844 C 818.707031 497.050781 812.589844 490.933594 805.050781 490.933594 Z M 791.390625 545.5625 L 381.675781 545.5625 L 381.675781 518.246094 L 791.390625 518.246094 Z M 791.390625 545.5625 "/>
</g>
</svg>
