<?xml version="1.0" encoding="UTF-8"?>
<svg xmlns="http://www.w3.org/2000/svg" xmlns:xlink="http://www.w3.org/1999/xlink" width="900pt" height="899.99999pt" viewBox="0 0 900 899.99999" version="1.2">
<defs>
<clipPath id="clip1">
  <path d="M 27.570312 83.257812 L 872.207031 83.257812 L 872.207031 665 L 27.570312 665 Z M 27.570312 83.257812 "/>
</clipPath>
<clipPath id="clip2">
  <path d="M 291 651.832031 L 609 651.832031 L 609 816.757812 L 291 816.757812 Z M 291 651.832031 "/>
</clipPath>
</defs>
<g id="surface1">
<path style=" stroke:none;fill-rule:evenodd;fill:rgb(94.509888%,73.329163%,48.629761%);fill-opacity:1;" d="M 449.980469 320.933594 C 445.363281 320.933594 440.703125 321.527344 436.125 322.757812 C 422.414062 326.433594 410.941406 335.234375 403.839844 347.539062 C 396.753906 359.839844 394.851562 374.160156 398.546875 387.882812 C 402.214844 401.613281 411.011719 413.066406 423.296875 420.179688 C 435.601562 427.265625 449.925781 429.160156 463.648438 425.496094 C 477.351562 421.8125 488.824219 413.019531 495.910156 400.714844 C 503.019531 388.40625 504.914062 374.078125 501.226562 360.363281 C 497.554688 346.640625 488.757812 335.164062 476.453125 328.074219 C 468.265625 323.335938 459.179688 320.933594 449.980469 320.933594 Z M 449.773438 440.320312 C 438.324219 440.320312 427 437.324219 416.804688 431.433594 C 401.507812 422.597656 390.558594 408.328125 385.996094 391.253906 C 381.410156 374.175781 383.757812 356.339844 392.585938 341.035156 C 401.421875 325.726562 415.703125 314.773438 432.757812 310.203125 C 449.828125 305.628906 467.65625 307.988281 482.957031 316.820312 C 498.261719 325.65625 509.210938 339.925781 513.78125 357 C 518.351562 374.078125 516.007812 391.898438 507.164062 407.210938 C 498.328125 422.511719 484.066406 433.464844 466.996094 438.054688 C 461.316406 439.574219 455.53125 440.320312 449.773438 440.320312 "/>
<path style=" stroke:none;fill-rule:evenodd;fill:rgb(94.509888%,73.329163%,48.629761%);fill-opacity:1;" d="M 450.0625 263.21875 C 440.4375 263.21875 430.742188 264.488281 421.199219 267.042969 C 392.609375 274.710938 368.71875 293.058594 353.914062 318.695312 C 339.109375 344.335938 335.1875 374.214844 342.835938 402.8125 C 350.492188 431.414062 368.832031 455.335938 394.464844 470.136719 C 420.121094 484.929688 449.980469 488.878906 478.566406 481.203125 C 507.164062 473.535156 531.046875 455.195312 545.859375 429.558594 C 560.664062 403.910156 564.585938 374.023438 556.9375 345.425781 C 549.273438 316.820312 530.933594 292.921875 505.300781 278.109375 C 488.21875 268.246094 469.261719 263.226562 450.0625 263.21875 Z M 449.675781 498.027344 C 428.21875 498.027344 407.054688 492.414062 387.972656 481.394531 C 359.328125 464.839844 338.835938 438.136719 330.296875 406.183594 C 321.738281 374.230469 326.117188 340.855469 342.660156 312.203125 C 359.191406 283.550781 385.886719 263.050781 417.832031 254.484375 C 449.789062 245.921875 483.152344 250.324219 511.796875 266.863281 C 540.421875 283.398438 560.914062 310.117188 569.476562 342.070312 C 578.039062 374.023438 573.652344 407.398438 557.105469 436.050781 C 540.574219 464.703125 513.878906 485.203125 481.9375 493.769531 C 471.261719 496.621094 460.433594 498.027344 449.675781 498.027344 "/>
<path style=" stroke:none;fill-rule:evenodd;fill:rgb(94.509888%,73.329163%,48.629761%);fill-opacity:1;" d="M 366.910156 297.613281 C 365.253906 297.613281 363.570312 296.988281 362.308594 295.710938 L 344.640625 278.042969 C 342.105469 275.507812 342.105469 271.394531 344.640625 268.855469 C 347.179688 266.3125 351.292969 266.320312 353.832031 268.855469 L 371.507812 286.523438 C 374.027344 289.0625 374.027344 293.179688 371.507812 295.710938 C 370.238281 296.988281 368.566406 297.613281 366.910156 297.613281 "/>
<path style=" stroke:none;fill-rule:evenodd;fill:rgb(94.509888%,73.329163%,48.629761%);fill-opacity:1;" d="M 419.511719 267.234375 C 416.636719 267.234375 414.007812 265.316406 413.230469 262.425781 L 406.765625 238.269531 C 405.832031 234.800781 407.902344 231.25 411.367188 230.320312 C 414.820312 229.386719 418.394531 231.441406 419.320312 234.90625 L 425.785156 259.058594 C 426.710938 262.527344 424.652344 266.078125 421.199219 267.011719 C 420.621094 267.164062 420.066406 267.234375 419.511719 267.234375 "/>
<path style=" stroke:none;fill-rule:evenodd;fill:rgb(94.509888%,73.329163%,48.629761%);fill-opacity:1;" d="M 480.265625 267.234375 C 479.699219 267.234375 479.128906 267.164062 478.566406 267.011719 C 475.101562 266.078125 473.054688 262.527344 473.984375 259.058594 L 480.445312 234.90625 C 481.382812 231.453125 484.933594 229.394531 488.398438 230.320312 C 491.867188 231.25 493.933594 234.800781 493 238.277344 L 486.523438 262.425781 C 485.746094 265.316406 483.121094 267.234375 480.265625 267.234375 "/>
<path style=" stroke:none;fill-rule:evenodd;fill:rgb(94.509888%,73.329163%,48.629761%);fill-opacity:1;" d="M 532.867188 297.613281 C 531.207031 297.613281 529.527344 296.988281 528.257812 295.710938 C 525.726562 293.179688 525.726562 289.0625 528.257812 286.523438 L 545.945312 268.855469 C 548.484375 266.3125 552.589844 266.320312 555.128906 268.855469 C 557.660156 271.394531 557.660156 275.507812 555.128906 278.042969 L 537.449219 295.710938 C 536.179688 296.988281 534.523438 297.613281 532.867188 297.613281 "/>
<path style=" stroke:none;fill-rule:evenodd;fill:rgb(94.509888%,73.329163%,48.629761%);fill-opacity:1;" d="M 563.234375 350.246094 C 560.359375 350.246094 557.730469 348.339844 556.953125 345.425781 C 556.027344 341.949219 558.085938 338.398438 561.554688 337.46875 L 585.679688 331.003906 C 589.15625 330.074219 592.722656 332.121094 593.632812 335.589844 C 594.570312 339.058594 592.515625 342.625 589.046875 343.546875 L 564.90625 350.027344 C 564.34375 350.179688 563.789062 350.246094 563.234375 350.246094 "/>
<path style=" stroke:none;fill-rule:evenodd;fill:rgb(94.509888%,73.329163%,48.629761%);fill-opacity:1;" d="M 587.375 417.46875 C 586.820312 417.46875 586.257812 417.402344 585.679688 417.25 L 561.554688 410.785156 C 558.085938 409.847656 556.027344 406.296875 556.953125 402.828125 C 557.890625 399.359375 561.453125 397.3125 564.90625 398.226562 L 589.046875 404.691406 C 592.515625 405.621094 594.5625 409.195312 593.632812 412.664062 C 592.871094 415.554688 590.234375 417.46875 587.375 417.46875 "/>
<path style=" stroke:none;fill-rule:evenodd;fill:rgb(94.509888%,73.329163%,48.629761%);fill-opacity:1;" d="M 550.527344 481.308594 C 548.871094 481.308594 547.214844 480.664062 545.945312 479.390625 L 528.265625 461.722656 C 525.726562 459.191406 525.726562 455.074219 528.257812 452.535156 C 530.796875 449.996094 534.910156 450.003906 537.449219 452.535156 L 555.128906 470.203125 C 557.660156 472.746094 557.660156 476.859375 555.128906 479.390625 C 553.859375 480.664062 552.1875 481.308594 550.527344 481.308594 "/>
<path style=" stroke:none;fill-rule:evenodd;fill:rgb(94.509888%,73.329163%,48.629761%);fill-opacity:1;" d="M 486.726562 518.152344 C 483.851562 518.152344 481.230469 516.238281 480.445312 513.332031 L 473.984375 489.195312 C 473.054688 485.726562 475.101562 482.152344 478.566406 481.242188 C 482.042969 480.3125 485.609375 482.359375 486.523438 485.828125 L 493 509.976562 C 493.933594 513.429688 491.867188 517.003906 488.398438 517.933594 C 487.84375 518.085938 487.265625 518.152344 486.726562 518.152344 "/>
<path style=" stroke:none;fill-rule:evenodd;fill:rgb(94.509888%,73.329163%,48.629761%);fill-opacity:1;" d="M 413.046875 518.152344 C 412.484375 518.152344 411.929688 518.085938 411.367188 517.933594 C 407.902344 517.003906 405.832031 513.429688 406.765625 509.976562 L 413.230469 485.828125 C 414.160156 482.359375 417.730469 480.3125 421.199219 481.242188 C 424.652344 482.152344 426.710938 485.726562 425.785156 489.195312 L 419.320312 513.332031 C 418.546875 516.238281 415.921875 518.152344 413.046875 518.152344 "/>
<path style=" stroke:none;fill-rule:evenodd;fill:rgb(94.509888%,73.329163%,48.629761%);fill-opacity:1;" d="M 349.246094 481.308594 C 347.566406 481.308594 345.910156 480.664062 344.640625 479.390625 C 342.105469 476.859375 342.105469 472.746094 344.640625 470.203125 L 362.308594 452.535156 C 364.839844 449.996094 368.96875 450.003906 371.507812 452.535156 C 374.027344 455.074219 374.027344 459.191406 371.507812 461.722656 L 353.832031 479.390625 C 352.5625 480.664062 350.902344 481.308594 349.246094 481.308594 "/>
<path style=" stroke:none;fill-rule:evenodd;fill:rgb(94.509888%,73.329163%,48.629761%);fill-opacity:1;" d="M 312.390625 417.46875 C 309.519531 417.46875 306.894531 415.554688 306.117188 412.664062 C 305.183594 409.195312 307.25 405.621094 310.71875 404.691406 L 334.84375 398.226562 C 338.3125 397.292969 341.886719 399.359375 342.8125 402.828125 C 343.75 406.296875 341.679688 409.855469 338.214844 410.785156 L 314.085938 417.25 C 313.507812 417.402344 312.953125 417.46875 312.390625 417.46875 "/>
<path style=" stroke:none;fill-rule:evenodd;fill:rgb(94.509888%,73.329163%,48.629761%);fill-opacity:1;" d="M 336.539062 350.246094 C 335.976562 350.246094 335.421875 350.179688 334.84375 350.027344 L 310.71875 343.546875 C 307.25 342.625 305.183594 339.058594 306.117188 335.589844 C 307.046875 332.121094 310.621094 330.074219 314.085938 331.003906 L 338.214844 337.46875 C 341.679688 338.398438 343.75 341.957031 342.8125 345.425781 C 342.039062 348.332031 339.414062 350.246094 336.539062 350.246094 "/>
<g clip-path="url(#clip1)" clip-rule="nonzero">
<path style=" stroke:none;fill-rule:evenodd;fill:rgb(94.509888%,73.329163%,48.629761%);fill-opacity:1;" d="M 70.863281 96.261719 C 54.167969 96.261719 40.5625 109.871094 40.5625 126.574219 L 40.5625 621.679688 C 40.5625 638.382812 54.167969 651.992188 70.863281 651.992188 L 828.902344 651.992188 C 845.601562 651.992188 859.203125 638.382812 859.203125 621.679688 L 859.203125 126.574219 C 859.203125 109.871094 845.601562 96.261719 828.902344 96.261719 Z M 828.902344 664.972656 L 70.863281 664.972656 C 46.988281 664.972656 27.570312 645.554688 27.570312 621.679688 L 27.570312 126.574219 C 27.570312 102.691406 46.988281 83.265625 70.863281 83.265625 L 828.902344 83.265625 C 852.777344 83.265625 872.199219 102.691406 872.199219 126.574219 L 872.207031 621.679688 C 872.207031 645.554688 852.777344 664.972656 828.902344 664.972656 "/>
</g>
<path style=" stroke:none;fill-rule:evenodd;fill:rgb(94.509888%,73.329163%,48.629761%);fill-opacity:1;" d="M 86.976562 605.546875 L 812.796875 605.546875 L 812.796875 142.683594 L 86.976562 142.683594 Z M 819.292969 618.546875 L 80.476562 618.546875 C 76.886719 618.546875 73.972656 615.65625 73.972656 612.050781 L 73.980469 136.1875 C 73.980469 132.597656 76.886719 129.683594 80.476562 129.683594 L 819.292969 129.683594 C 822.882812 129.683594 825.792969 132.597656 825.792969 136.1875 L 825.792969 612.050781 C 825.792969 615.65625 822.882812 618.546875 819.292969 618.546875 "/>
<g clip-path="url(#clip2)" clip-rule="nonzero">
<path style=" stroke:none;fill-rule:evenodd;fill:rgb(94.509888%,73.329163%,48.629761%);fill-opacity:1;" d="M 602.011719 816.832031 L 297.761719 816.832031 C 294.804688 816.832031 292.226562 814.855469 291.480469 811.992188 C 290.722656 809.132812 292.007812 806.121094 294.578125 804.683594 C 376.011719 758.886719 366.082031 694.21875 360.734375 659.46875 C 360.1875 655.914062 362.628906 652.597656 366.179688 652.058594 C 369.714844 651.496094 373.03125 653.953125 373.59375 657.488281 C 377.226562 681.25 379.546875 706.960938 371.8125 733.789062 C 363.929688 761.222656 346.554688 784.710938 320.042969 803.839844 L 579.710938 803.832031 C 553.21875 784.710938 535.839844 761.222656 527.9375 733.789062 C 520.226562 706.960938 522.523438 681.25 526.183594 657.488281 C 526.738281 653.9375 530.050781 651.503906 533.585938 652.058594 C 537.144531 652.597656 539.578125 655.914062 539.023438 659.46875 C 533.695312 694.21875 523.742188 758.886719 605.191406 804.683594 C 607.761719 806.121094 609.03125 809.132812 608.285156 811.992188 C 607.539062 814.855469 604.949219 816.832031 602.011719 816.832031 "/>
</g>
</g>
</svg>
