<svg width="45" height="41.99999" xmlns="http://www.w3.org/2000/svg" version="1.2">
 <defs>
  <clipPath id="clip1">
   <path id="svg_1" d="m4.41016,3.41016l34.5,0l0,34.5l-34.5,0l0,-34.5zm0,0"/>
  </clipPath>
 </defs>
 <g>
  <title>Layer 1</title>
  <g id="surface1">
   <g id="svg_2" clip-rule="nonzero" clip-path="url(#clip1)">
    <path id="svg_3" fill-rule="nonzero" fill="rgb(94.509888%,73.329163%,48.629761%)" d="m11.66406,3.41016l19.9961,0c1.99609,0 3.80468,0.8164 5.11718,2.13672c1.31641,1.30859 2.13282,3.12109 2.13282,5.11718l0,19.9961c0,1.99609 -0.81641,3.80468 -2.13282,5.11718c-1.3125,1.31641 -3.12109,2.13282 -5.11718,2.13282l-19.9961,0c-1.99609,0 -3.80859,-0.81641 -5.11718,-2.13282c-1.32032,-1.3125 -2.13672,-3.12109 -2.13672,-5.11718l0,-19.9961c0,-1.99609 0.8164,-3.80859 2.13672,-5.11718c1.30859,-1.32032 3.12109,-2.13672 5.11718,-2.13672zm20.53907,5.65625c0.39062,0 0.71875,0.32422 0.71875,0.71484c0,0.39844 -0.32813,0.71875 -0.71875,0.71875c-0.39844,0 -0.71485,-0.32031 -0.71485,-0.71875c0,-0.39062 0.31641,-0.71484 0.71485,-0.71484zm-10.54297,1.96093c5.32031,0 9.63281,4.3125 9.63281,9.63282c0,5.32031 -4.3125,9.63281 -9.63281,9.63281c-5.32032,0 -9.63282,-4.3125 -9.63282,-9.63281c0,-5.32032 4.3125,-9.63282 9.63282,-9.63282zm8.2539,9.63282c0,-4.55469 -3.69922,-8.25391 -8.2539,-8.25391c-4.55469,0 -8.25391,3.69922 -8.25391,8.25391c0,4.55468 3.69922,8.2539 8.25391,8.2539c4.55468,0 8.2539,-3.69922 8.2539,-8.2539zm1.7461,-15.86328l-19.9961,0c-1.61328,0 -3.08203,0.66015 -4.14843,1.71875c-1.0586,1.0664 -1.71875,2.53515 -1.71875,4.14843l0,19.9961c0,1.61328 0.66015,3.07812 1.71875,4.14453c1.0664,1.05859 2.53515,1.71875 4.14843,1.71875l19.9961,0c1.61328,0 3.07812,-0.66016 4.14453,-1.71875c1.05859,-1.06641 1.71875,-2.53125 1.71875,-4.14453l0,-19.9961c0,-1.61328 -0.66016,-3.08203 -1.71875,-4.14843c-1.06641,-1.0586 -2.53125,-1.71875 -4.14453,-1.71875zm0,0"/>
   </g>
  </g>
 </g>
</svg>