<?xml version="1.0" encoding="UTF-8"?>
<svg xmlns="http://www.w3.org/2000/svg" xmlns:xlink="http://www.w3.org/1999/xlink" width="900pt" height="899.99999pt" viewBox="0 0 900 899.99999" version="1.2">
<defs>
<clipPath id="clip1">
  <path d="M 215.972656 26 L 683.972656 26 L 683.972656 874 L 215.972656 874 Z M 215.972656 26 "/>
</clipPath>
</defs>
<g id="surface1">
<g clip-path="url(#clip1)" clip-rule="nonzero">
<path style=" stroke:none;fill-rule:nonzero;fill:rgb(94.509888%,73.329163%,48.629761%);fill-opacity:1;" d="M 636.339844 854.570312 C 633.199219 854.570312 630.066406 854.570312 626.929688 854.570312 C 609.167969 854.570312 591.414062 854.570312 573.652344 854.570312 C 515.667969 854.570312 457.675781 854.570312 399.695312 854.570312 C 356.460938 854.570312 313.230469 854.570312 270 854.570312 C 267.003906 854.570312 264.015625 854.589844 261.023438 854.488281 C 244.132812 853.90625 234.449219 834.621094 234.449219 819.890625 C 234.449219 814.128906 234.449219 808.375 234.449219 802.613281 C 234.449219 780.699219 234.449219 758.78125 234.449219 736.859375 C 244.984375 736.859375 255.53125 736.859375 266.066406 736.859375 C 277.984375 736.859375 277.984375 718.378906 266.066406 718.378906 C 255.53125 718.378906 244.984375 718.378906 234.449219 718.378906 C 234.449219 656.871094 234.449219 595.355469 234.449219 533.839844 C 234.449219 419.257812 234.449219 304.675781 234.449219 190.085938 C 234.449219 173.503906 234.449219 156.925781 234.449219 140.339844 C 318.996094 140.339844 403.546875 140.339844 488.097656 140.339844 C 541.015625 140.339844 593.929688 140.339844 646.847656 140.339844 C 658.757812 140.339844 658.757812 121.859375 646.847656 121.859375 C 559.214844 121.859375 471.59375 121.859375 383.960938 121.859375 C 334.125 121.859375 284.28125 121.859375 234.449219 121.859375 C 234.449219 111.894531 234.449219 101.929688 234.449219 91.972656 C 234.449219 85.144531 233.957031 77.921875 235.199219 71.195312 C 237.804688 57.128906 249.019531 44.601562 263.9375 44.601562 C 267.613281 44.601562 271.277344 44.601562 274.953125 44.601562 C 378.1875 44.601562 481.429688 44.601562 584.664062 44.601562 C 600.238281 44.601562 615.820312 44.601562 631.402344 44.601562 C 636.238281 44.601562 640.503906 44.683594 645.28125 46.191406 C 658.769531 50.445312 665.433594 66.574219 665.433594 79.519531 C 665.433594 100.378906 665.433594 121.242188 665.433594 142.109375 C 665.433594 248.910156 665.433594 355.707031 665.433594 462.507812 C 665.433594 547.796875 665.433594 633.085938 665.433594 718.378906 C 577.902344 718.378906 490.378906 718.378906 402.847656 718.378906 C 366.644531 718.378906 330.4375 718.378906 294.226562 718.378906 C 282.3125 718.378906 282.3125 736.859375 294.226562 736.859375 C 384.832031 736.859375 475.445312 736.859375 566.050781 736.859375 C 599.179688 736.859375 632.304688 736.859375 665.433594 736.859375 C 665.433594 748.40625 665.433594 759.941406 665.433594 771.488281 C 665.433594 787.667969 665.433594 803.855469 665.433594 820.042969 C 665 836.46875 654.671875 854.570312 636.339844 854.570312 Z M 633.878906 26.121094 C 620.042969 26.121094 606.207031 26.121094 592.378906 26.121094 C 536.605469 26.121094 480.835938 26.121094 425.0625 26.121094 C 376.535156 26.121094 328.011719 26.121094 279.484375 26.121094 C 264.574219 26.121094 250.585938 25.363281 237.585938 34.683594 C 221.421875 46.277344 215.972656 65.164062 215.972656 84.117188 C 215.972656 162.476562 215.972656 240.835938 215.972656 319.195312 C 215.972656 436.679688 215.972656 554.164062 215.972656 671.640625 C 215.972656 711.101562 215.972656 750.550781 215.972656 790 C 215.972656 798.960938 215.972656 807.921875 215.972656 816.878906 C 215.972656 840.511719 226.898438 861.925781 249.683594 870.800781 C 259.894531 874.777344 273.910156 873.050781 284.664062 873.050781 C 306.050781 873.050781 327.429688 873.050781 348.8125 873.050781 C 408.007812 873.050781 467.203125 873.050781 526.390625 873.050781 C 557.730469 873.050781 589.058594 873.050781 620.398438 873.050781 C 625.738281 873.050781 631.078125 873.050781 636.417969 873.050781 C 665.019531 873.050781 683.214844 846.496094 683.910156 820.042969 C 683.910156 756.375 683.910156 692.710938 683.910156 629.042969 C 683.910156 510.496094 683.910156 391.953125 683.910156 273.40625 C 683.910156 208.65625 683.910156 143.898438 683.910156 79.152344 C 683.910156 50.53125 663.023438 26.121094 633.878906 26.121094 "/>
</g>
<path style=" stroke:none;fill-rule:nonzero;fill:rgb(94.509888%,73.329163%,48.629761%);fill-opacity:1;" d="M 491.683594 74.964844 C 463.855469 74.964844 436.027344 74.964844 408.1875 74.964844 C 396.28125 74.964844 396.28125 93.445312 408.1875 93.445312 C 436.027344 93.445312 463.855469 93.445312 491.683594 93.445312 C 503.601562 93.445312 503.601562 74.964844 491.683594 74.964844 "/>
<path style=" stroke:none;fill-rule:nonzero;fill:rgb(94.509888%,73.329163%,48.629761%);fill-opacity:1;" d="M 424.996094 795.738281 C 424.484375 781.746094 436.71875 771.269531 449.941406 770.789062 C 463.925781 770.269531 474.390625 782.503906 474.882812 795.738281 C 473.699219 827.925781 426.179688 827.925781 424.996094 795.738281 Z M 493.15625 793.359375 C 491.195312 770.296875 473.390625 753.164062 449.941406 752.304688 C 425.703125 751.410156 407.367188 772.816406 406.519531 795.738281 C 405.632812 819.984375 427.027344 838.332031 449.941406 839.175781 C 473.453125 840.035156 491.417969 819.914062 493.230469 797.769531 C 493.335938 797.132812 493.378906 796.460938 493.359375 795.738281 C 493.386719 794.882812 493.308594 794.09375 493.15625 793.359375 "/>
<path style=" stroke:none;fill-rule:nonzero;fill:rgb(94.509888%,73.329163%,48.629761%);fill-opacity:1;" d="M 497.667969 640.882812 C 536.527344 559.90625 575.382812 478.917969 614.242188 397.929688 C 616.03125 394.203125 617.820312 390.472656 619.617188 386.738281 C 623.464844 378.71875 611.511719 371.683594 607.652344 379.742188 C 568.792969 460.730469 529.9375 541.710938 491.078125 622.691406 C 489.289062 626.421875 487.5 630.15625 485.703125 633.886719 C 481.855469 641.902344 493.804688 648.941406 497.667969 640.882812 "/>
<path style=" stroke:none;fill-rule:nonzero;fill:rgb(94.509888%,73.329163%,48.629761%);fill-opacity:1;" d="M 569.867188 566.828125 C 591.355469 522.050781 612.839844 477.265625 634.324219 432.484375 C 638.171875 424.464844 626.226562 417.429688 622.359375 425.488281 C 600.875 470.269531 579.386719 515.054688 557.902344 559.832031 C 554.054688 567.855469 566 574.886719 569.867188 566.828125 "/>
</g>
</svg>
