<?xml version="1.0" encoding="UTF-8"?>
<svg xmlns="http://www.w3.org/2000/svg" xmlns:xlink="http://www.w3.org/1999/xlink" width="900pt" height="899.99999pt" viewBox="0 0 900 899.99999" version="1.2">
<defs>
<clipPath id="clip1">
  <path d="M 12.285156 48.394531 L 887.535156 48.394531 L 887.535156 851.644531 L 12.285156 851.644531 Z M 12.285156 48.394531 "/>
</clipPath>
</defs>
<g id="surface1">
<g clip-path="url(#clip1)" clip-rule="nonzero">
<path style=" stroke:none;fill-rule:nonzero;fill:rgb(94.509888%,73.329163%,48.629761%);fill-opacity:1;" d="M 878.199219 48.394531 L 21.621094 48.394531 C 16.695312 48.394531 12.699219 52.394531 12.699219 57.320312 L 12.699219 699.921875 C 12.699219 704.847656 16.695312 708.847656 21.621094 708.847656 L 440.988281 708.847656 L 440.988281 833.796875 L 271.457031 833.796875 C 266.53125 833.796875 262.53125 837.792969 262.53125 842.722656 C 262.53125 847.648438 266.53125 851.644531 271.457031 851.644531 L 628.363281 851.644531 C 633.289062 851.644531 637.285156 847.648438 637.285156 842.722656 C 637.285156 837.792969 633.289062 833.796875 628.363281 833.796875 L 458.832031 833.796875 L 458.832031 708.847656 L 878.199219 708.847656 C 883.125 708.847656 887.121094 704.847656 887.121094 699.921875 L 887.121094 57.320312 C 887.121094 52.394531 883.125 48.394531 878.199219 48.394531 Z M 869.277344 690.996094 L 30.542969 690.996094 L 30.542969 66.246094 L 869.277344 66.246094 Z M 869.277344 690.996094 "/>
</g>
<path style=" stroke:none;fill-rule:nonzero;fill:rgb(94.509888%,73.329163%,48.629761%);fill-opacity:1;" d="M 300.828125 456.339844 C 302.578125 458.070312 304.863281 458.945312 307.148438 458.945312 C 309.429688 458.945312 311.714844 458.070312 313.464844 456.339844 C 316.945312 452.859375 316.945312 447.199219 313.464844 443.71875 L 248.382812 378.621094 L 313.445312 313.539062 C 316.925781 310.058594 316.925781 304.402344 313.445312 300.921875 C 309.964844 297.4375 304.308594 297.4375 300.828125 300.921875 L 229.449219 372.320312 C 225.96875 375.800781 225.96875 381.460938 229.449219 384.941406 Z M 300.828125 456.339844 "/>
<path style=" stroke:none;fill-rule:nonzero;fill:rgb(94.509888%,73.329163%,48.629761%);fill-opacity:1;" d="M 586.355469 456.339844 C 588.105469 458.070312 590.386719 458.945312 592.671875 458.945312 C 594.957031 458.945312 597.242188 458.070312 598.988281 456.339844 L 670.371094 384.941406 C 673.851562 381.460938 673.851562 375.800781 670.371094 372.320312 L 598.988281 300.921875 C 595.511719 297.4375 589.851562 297.4375 586.375 300.921875 C 582.894531 304.402344 582.894531 310.058594 586.375 313.539062 L 651.4375 378.621094 L 586.375 443.703125 C 582.875 447.199219 582.875 452.839844 586.355469 456.339844 Z M 586.355469 456.339844 "/>
<path style=" stroke:none;fill-rule:nonzero;fill:rgb(94.509888%,73.329163%,48.629761%);fill-opacity:1;" d="M 412.058594 530.078125 C 412.773438 530.257812 413.503906 530.347656 414.21875 530.347656 C 418.214844 530.347656 421.855469 527.652344 422.855469 523.582031 L 494.238281 237.980469 C 495.414062 233.195312 492.523438 228.359375 487.742188 227.164062 C 482.871094 225.949219 478.105469 228.859375 476.925781 233.660156 L 405.546875 519.261719 C 404.367188 524.027344 407.277344 528.882812 412.058594 530.078125 Z M 412.058594 530.078125 "/>
</g>
</svg>
